<svg width="24" height="25" viewBox="0 0 24 25" fill="none" xmlns="http://www.w3.org/2000/svg">
<path d="M16.4249 4.85509L17.4149 3.8651C18.2351 3.04497 19.5648 3.04497 20.3849 3.8651C21.205 4.68524 21.205 6.01493 20.3849 6.83507L19.3949 7.82506M16.4249 4.85509L9.76558 11.5144C9.25807 12.022 8.89804 12.6578 8.72397 13.3541L8 16.25L10.8959 15.526C11.5922 15.352 12.228 14.9919 12.7356 14.4844L19.3949 7.82506M16.4249 4.85509L19.3949 7.82506" stroke="#393939" stroke-linejoin="round"/>
<path d="M18.9999 13.75C18.9999 17.0375 18.9999 18.6812 18.092 19.7876C17.9258 19.9901 17.7401 20.1758 17.5375 20.342C16.4312 21.25 14.7874 21.25 11.4999 21.25H11C7.22876 21.25 5.34316 21.25 4.17159 20.0784C3.00003 18.9069 3 17.0212 3 13.25V12.75C3 9.46252 3 7.81879 3.90794 6.71244C4.07417 6.5099 4.2599 6.32417 4.46244 6.15794C5.56879 5.25 7.21252 5.25 10.5 5.25" stroke="#393939" stroke-linecap="round" stroke-linejoin="round"/>
</svg>
