<svg width="76" height="32" viewBox="0 0 76 32" fill="none" xmlns="http://www.w3.org/2000/svg">
<path d="M15.036 15.5442C15.077 15.4623 15.1305 15.4245 15.1998 15.4308C15.2753 15.4308 15.3383 15.456 15.3887 15.5064C15.4391 15.5568 15.4422 15.6166 15.4013 15.6827C14.7274 16.936 14.0158 18.1578 13.2601 19.348C12.5043 20.532 11.6352 21.6499 10.6528 22.6985C9.90332 23.4794 9.19482 24.084 8.5241 24.5122C7.85024 24.931 7.21416 25.205 6.60957 25.331C6.01128 25.4632 5.46337 25.4695 4.95955 25.3435C4.45572 25.2176 4.00228 24.994 3.59922 24.676C3.20246 24.3579 2.85923 23.9706 2.56638 23.5172C2.27038 23.0574 2.04051 22.5536 1.87362 22.0057C1.71303 21.4515 1.62171 20.8816 1.59652 20.2927C1.56503 19.4551 1.6532 18.6049 1.87362 17.7484C2.10034 16.8856 2.43098 16.048 2.86867 15.2419C3.30322 14.4358 3.82594 13.6926 4.43053 13.0124C5.04142 12.3323 5.71528 11.7497 6.44583 11.2617C5.70584 11.2365 5.10125 11.1609 4.63206 11.0349C4.15972 10.909 3.72832 10.7578 3.33471 10.5815C2.78051 10.2635 2.368 9.88874 2.10034 9.46049C1.82954 9.03224 1.67524 8.5725 1.63431 8.07497C1.59022 7.57115 1.6406 7.05473 1.78545 6.52571C1.92715 5.99669 2.13813 5.47398 2.41523 4.95126C2.69863 4.43169 3.02612 3.93731 3.39769 3.46498C3.86688 2.87928 4.3707 2.36601 4.90916 1.92831C5.45392 1.49377 6.01128 1.13479 6.58438 0.857687C7.15433 0.574285 7.70539 0.366458 8.2344 0.240502C8.76972 0.108249 9.2578 0.0515681 9.69549 0.0767593C10.1395 0.101951 10.5142 0.202715 10.8165 0.379054C11.1188 0.555392 11.3203 0.807305 11.4211 1.13479C11.5219 1.46228 11.4872 1.86534 11.3203 2.34397C11.2007 2.69035 11.0117 3.01783 10.7535 3.32643C10.4922 3.62872 10.1773 3.89953 9.80886 4.13254C9.43728 4.35927 9.01848 4.52301 8.54929 4.62377C8.39815 4.65841 8.27534 4.64267 8.18402 4.57339C8.08955 4.50726 8.03287 4.41595 8.00768 4.29629C7.98249 4.17978 7.99509 4.06957 8.04547 3.9688C8.10215 3.86174 8.20292 3.78931 8.34776 3.75468C8.65006 3.68855 8.95235 3.61298 9.25465 3.52796C9.55694 3.43664 9.83719 3.28549 10.0986 3.07451C10.3568 2.85724 10.5772 2.54235 10.7535 2.12984C10.911 1.75198 10.9456 1.44338 10.8543 1.19777C10.7693 0.955303 10.5835 0.775815 10.3001 0.656157C10.023 0.539648 9.6766 0.489266 9.26724 0.50501C8.86418 0.514457 8.41389 0.586882 7.91951 0.719135C7.43143 0.854538 6.92761 1.05607 6.40804 1.32372C5.89477 1.58508 5.39409 1.90942 4.90916 2.29359C4.42108 2.67145 3.98024 3.10915 3.58662 3.60353C3.2245 4.05697 2.90016 4.5356 2.61676 5.03943C2.33966 5.54325 2.12868 6.05338 1.98698 6.5635C1.85158 7.06732 1.8012 7.55855 1.83584 8.03718C1.87677 8.50952 2.02792 8.93777 2.28928 9.32193C2.54749 9.70925 2.94425 10.0336 3.47326 10.2918C4.05266 10.5185 4.61946 10.6571 5.17367 10.7075C5.72788 10.7515 6.28838 10.7263 6.86148 10.6319C7.43143 10.5311 8.02343 10.3894 8.63746 10.2036C8.77916 10.1469 8.90197 10.1501 9.00274 10.2162C9.1035 10.2855 9.17278 10.3737 9.21686 10.4807C9.2578 10.5909 9.25465 10.7012 9.20427 10.8082C9.16018 10.9184 9.06571 10.9972 8.91457 11.0475C8.5367 11.1577 8.19662 11.2743 7.89432 11.4002C7.59833 11.5262 7.32122 11.6647 7.06301 11.8159C6.35766 12.2284 5.69639 12.7416 5.0855 13.3525C4.48091 13.9666 3.9456 14.6499 3.48586 15.4056C3.03242 16.1614 2.67974 16.9549 2.42783 17.7862C2.17592 18.6175 2.05311 19.4488 2.06256 20.2801C2.0783 20.9193 2.17907 21.5334 2.36485 22.1191C2.54749 22.7079 2.812 23.2338 3.15837 23.6935C3.5016 24.1564 3.91726 24.5185 4.40534 24.7767C4.89027 25.0287 5.44448 25.1326 6.06796 25.0916C6.69774 25.057 7.38105 24.846 8.12104 24.4493C8.85789 24.0462 9.65141 23.4164 10.5016 22.5599C11.1377 21.9144 11.7265 21.2059 12.265 20.4313C12.8003 19.6503 13.2978 18.8442 13.7513 18.0129C14.211 17.1753 14.6393 16.3503 15.036 15.5442Z" fill="#393939"/>
<path d="M20.9751 24.9548C21.0822 24.9296 21.1704 24.9454 21.2397 25.0052C21.3152 25.0619 21.3593 25.1343 21.3782 25.2193C21.4034 25.3106 21.3908 25.3988 21.3404 25.4838C21.2963 25.5657 21.2208 25.6161 21.1137 25.635C20.8933 25.6759 20.6886 25.635 20.4965 25.509C20.3013 25.3894 20.1312 25.2256 19.9801 25.0178C19.8352 24.8163 19.7156 24.6147 19.6148 24.4132C19.47 24.1109 19.3377 23.7519 19.2118 23.33C19.0921 22.9017 18.9787 22.4483 18.8717 21.9697C18.7709 21.4847 18.6764 20.9966 18.5946 20.5086C18.519 20.0142 18.4466 19.5481 18.3805 19.1104C18.3112 18.6665 18.2545 18.2791 18.2041 17.9517C18.0939 18.2382 17.9585 18.5531 17.8011 18.8963C17.6405 19.2333 17.4547 19.5513 17.2468 19.8536C17.0359 20.1559 16.7997 20.4015 16.5415 20.5841C16.2896 20.7605 16.003 20.836 15.685 20.8109C15.3984 20.7857 15.1591 20.6692 14.967 20.4582C14.775 20.2504 14.627 19.9764 14.5262 19.6395C14.4254 19.2962 14.3719 18.9184 14.3625 18.5059C14.3467 18.0965 14.3719 17.6745 14.438 17.2463C14.5073 16.8118 14.6144 16.3992 14.7655 16.0119C14.9104 15.6183 15.0867 15.2751 15.3071 14.9791C15.5244 14.6862 15.7763 14.469 16.0629 14.3241C16.3463 14.173 16.6674 14.1226 17.0201 14.173C17.1209 14.1919 17.2374 14.2234 17.3728 14.2737C17.5051 14.3241 17.6436 14.3965 17.7885 14.4879C17.7286 13.8423 17.6877 13.1464 17.6625 12.397C17.6373 11.6413 17.6373 10.8666 17.6625 10.0668C17.6877 9.26068 17.7318 8.47346 17.8011 7.69883C17.8672 6.9179 17.9648 6.17476 18.0908 5.46941C18.2167 4.76405 18.3742 4.14057 18.5694 3.59266C18.7615 3.05735 18.9661 2.71097 19.1866 2.55982C19.4038 2.40867 19.6022 2.42757 19.7786 2.6102C19.9612 2.78654 20.0935 3.10143 20.169 3.55487C20.2257 3.93274 20.2572 4.42397 20.2572 5.02856C20.2572 5.63315 20.232 6.31961 20.1816 7.08164C20.1375 7.84683 20.0683 8.65609 19.9675 9.5126C19.873 10.3691 19.7565 11.2445 19.6148 12.1325C19.47 13.0142 19.3062 13.8801 19.1236 14.7272C18.9378 15.5774 18.7268 16.3646 18.4938 17.0952C18.5096 17.6179 18.5442 18.1973 18.5946 18.8333C18.6513 19.4726 18.7363 20.1244 18.8465 20.7857C18.9536 21.4406 19.1015 22.0704 19.2873 22.675C19.47 23.2733 19.6967 23.7897 19.9675 24.2243C20.0431 24.3345 20.1312 24.451 20.232 24.5769C20.3391 24.7029 20.4587 24.8037 20.5847 24.8792C20.7106 24.9548 20.8397 24.98 20.9751 24.9548ZM19.0228 3.74381C18.9473 4.065 18.8748 4.4964 18.8087 5.04116C18.7489 5.57962 18.6985 6.19365 18.6576 6.88011C18.6229 7.56028 18.5946 8.27193 18.5694 9.00877C18.5442 9.74876 18.5222 10.4825 18.5064 11.213C18.497 11.9435 18.4875 12.63 18.4812 13.2661C18.4718 13.8959 18.4686 14.4469 18.4686 14.9161C18.4686 15.379 18.4686 15.7159 18.4686 15.9238C18.6355 15.4042 18.7961 14.809 18.9473 14.1352C19.1047 13.455 19.2527 12.7339 19.3881 11.9687C19.5298 11.2067 19.6526 10.4384 19.7534 9.66374C19.8604 8.88282 19.9423 8.12078 19.9927 7.37134C20.0431 6.62505 20.0588 5.93229 20.0431 5.29307C20.0336 4.64754 19.9738 4.08389 19.8667 3.60526C19.7565 3.12032 19.6274 2.87156 19.4763 2.86212C19.3314 2.85582 19.1803 3.14867 19.0228 3.74381ZM15.8361 20.2441C16.0377 20.2378 16.2298 20.1559 16.4155 20.0047C16.6076 19.8473 16.7871 19.6458 16.9571 19.4001C17.1335 19.1482 17.2909 18.8837 17.4358 18.6066C17.5775 18.3232 17.7034 18.0461 17.8136 17.7753C17.9207 17.5077 18.0089 17.2809 18.0782 17.0952C18.053 16.8684 18.0278 16.6732 18.0026 16.5032C17.9837 16.3268 17.9648 16.1505 17.9396 15.9741C17.9207 15.7915 17.8955 15.5805 17.864 15.3444C17.7381 15.4136 17.6247 15.4262 17.5239 15.3821C17.4295 15.3318 17.335 15.2656 17.2343 15.1806C17.1335 15.0987 17.0075 15.0421 16.8564 15.0169C16.6108 14.9507 16.384 15.0011 16.1762 15.168C15.9747 15.3381 15.7921 15.5774 15.6346 15.886C15.474 16.1883 15.3386 16.5346 15.2315 16.9188C15.1308 17.2967 15.0615 17.684 15.03 18.0776C15.0048 18.4744 15.0111 18.8396 15.0552 19.1734C15.0961 19.5009 15.1812 19.7654 15.3071 19.9669C15.4394 20.1622 15.6157 20.2535 15.8361 20.2441Z" fill="#393939"/>
<path d="M31.3344 15.5048C31.3753 15.4292 31.4288 15.3978 31.4981 15.404C31.5737 15.4135 31.6303 15.4418 31.6744 15.4922C31.7248 15.5426 31.728 15.6119 31.687 15.6937C31.6681 15.7284 31.6178 15.804 31.5359 15.9205C31.4509 16.0401 31.3532 16.1724 31.2462 16.3235C31.136 16.4684 31.0258 16.6006 30.9187 16.7266C30.4464 17.2902 29.9614 17.665 29.4576 17.8476C28.9538 18.0239 28.4909 18.0617 28.0721 17.961C27.7446 17.9043 27.4581 17.7689 27.2156 17.5579C26.97 17.3501 26.7653 17.0982 26.5984 16.8022C26.4284 16.5093 26.2835 16.1944 26.1576 15.8575C26.0379 15.5237 25.934 15.2025 25.8427 14.9002C25.8332 14.9254 25.8206 14.9569 25.8049 14.9884C25.786 15.023 25.7734 15.0577 25.7671 15.0892C25.6159 15.4607 25.4554 15.8417 25.2885 16.2354C25.1279 16.6227 24.9389 17.0037 24.7217 17.3816C24.4257 17.8854 24.1171 18.2507 23.7896 18.4774C23.4621 18.6978 23.1472 18.7986 22.8449 18.7797C22.5426 18.7639 22.2687 18.6474 22.0262 18.427C21.7806 18.2097 21.5916 17.9106 21.4594 17.5327C21.3145 17.1643 21.2264 16.7518 21.1949 16.2983C21.1634 15.8449 21.1571 15.3915 21.1823 14.938C21.2075 14.4783 21.2484 14.05 21.3082 13.6533C21.324 13.4958 21.387 13.3856 21.4972 13.3258C21.6042 13.2691 21.7176 13.2565 21.8373 13.288C21.9632 13.3132 22.0577 13.3762 22.127 13.4769C22.2025 13.5714 22.2183 13.691 22.1773 13.8422C22.0766 14.1886 21.9916 14.5696 21.9254 14.9884C21.8656 15.4009 21.8436 15.8134 21.8625 16.2228C21.8782 16.6258 21.9412 16.9974 22.0514 17.3312C22.1333 17.602 22.2529 17.8098 22.4041 17.961C22.5552 18.1121 22.7253 18.1877 22.9205 18.1877C23.1126 18.1877 23.3109 18.0995 23.5125 17.9232C23.7203 17.7468 23.9187 17.4634 24.1045 17.0667C24.2714 16.7077 24.4194 16.3298 24.5453 15.9331C24.6776 15.53 24.813 15.1395 24.9484 14.7617C25.0554 14.4436 25.194 14.2169 25.364 14.0815C25.5404 13.9493 25.7199 13.8926 25.9056 13.9178C26.0883 13.943 26.2489 14.0248 26.3843 14.1571C26.526 14.283 26.6173 14.4562 26.6614 14.6735C26.7181 14.9506 26.7779 15.2466 26.8377 15.5552C26.8944 15.8575 26.9763 16.1535 27.077 16.4369C27.1778 16.7234 27.3101 16.9722 27.4801 17.18C27.6564 17.391 27.8832 17.539 28.1603 17.6209C28.4122 17.7059 28.6798 17.7279 28.9664 17.6839C29.2592 17.6429 29.5521 17.5327 29.8481 17.3564C30.1504 17.18 30.4338 16.9155 30.7046 16.5628C30.8211 16.396 30.9313 16.2228 31.0321 16.0464C31.1391 15.8701 31.2399 15.6906 31.3344 15.5048Z" fill="#393939"/>
<path d="M48.2556 21.3771C48.3973 21.5629 48.5359 21.6794 48.6713 21.7298C48.8036 21.7739 48.961 21.7991 49.1373 21.8054C49.2538 21.8148 49.3294 21.8684 49.3641 21.9691C49.405 22.0636 49.405 22.1581 49.3641 22.2588C49.32 22.3533 49.2381 22.4037 49.1121 22.41C48.8665 22.41 48.6335 22.3533 48.4068 22.2336C48.1801 22.1171 47.9817 21.9377 47.8148 21.692C47.5881 21.374 47.4243 20.9583 47.3236 20.4451C47.2228 19.9349 47.1598 19.3556 47.1346 18.7069C47.1157 18.0614 47.1252 17.3717 47.1598 16.6412C47.2008 15.9044 47.2511 15.1486 47.311 14.374C47.3677 13.5931 47.4243 12.8184 47.4747 12.0438C47.5251 11.2723 47.5566 10.526 47.5755 9.80178C47.5912 9.08068 47.5755 8.40997 47.5251 7.78649C47.4558 7.09058 47.3299 6.53952 47.1472 6.13646C46.9709 5.7271 46.7599 5.45315 46.5175 5.31775C46.2718 5.17605 46.0168 5.14771 45.7491 5.22958C45.4783 5.3146 45.2138 5.49094 44.9556 5.75859C44.6942 6.0294 44.4675 6.37578 44.2754 6.80403C44.0141 7.35194 43.7905 7.98801 43.6079 8.71856C43.4221 9.44281 43.2583 10.2111 43.1166 11.0236C42.9812 11.8391 42.8521 12.6578 42.7262 13.4797C42.6065 14.3047 42.4869 15.0919 42.3609 15.8477C42.2412 16.5971 42.109 17.2678 41.9578 17.863C41.7721 18.5683 41.5485 19.0973 41.2903 19.45C41.0289 19.7964 40.7644 19.9853 40.4968 20.0168C40.2354 20.042 40.0055 19.9224 39.804 19.6515C39.6025 19.3839 39.4639 18.9903 39.3883 18.4676C39.3285 18.0236 39.3002 17.4914 39.3002 16.8679C39.3002 16.2381 39.3191 15.5517 39.3631 14.8022C39.4041 14.0465 39.4513 13.2624 39.5017 12.4469C39.5521 11.6344 39.5962 10.8157 39.6402 9.99072C39.6906 9.15941 39.719 8.35014 39.7284 7.55976C39.7442 6.77254 39.7316 6.03255 39.6906 5.34294C39.656 4.65648 39.5804 4.04244 39.4639 3.50398C39.3537 2.95922 39.19 2.52152 38.9727 2.19404C38.7523 1.86025 38.4752 1.65242 38.1414 1.57685C37.7698 1.50128 37.414 1.57055 37.0707 1.77838C36.7338 1.97991 36.4095 2.29165 36.1009 2.71046C35.7891 3.13241 35.4963 3.62993 35.2192 4.20933C34.9421 4.78243 34.6807 5.39332 34.4383 6.04829C34.2021 6.70326 33.9848 7.37713 33.7833 8.06359C33.5818 8.7532 33.3991 9.42391 33.2417 10.0789C33.0905 10.7276 32.9551 11.3227 32.8386 11.8675C32.7284 12.4059 32.6434 12.8625 32.5867 13.2404C32.6434 13.8387 32.7127 14.5062 32.7882 15.2431C32.8638 15.9736 32.9394 16.7294 33.015 17.5103C33.0905 18.2912 33.1567 19.0564 33.2165 19.8027C33.2732 20.5521 33.3173 21.248 33.3424 21.8936C33.3676 22.5328 33.3708 23.0713 33.355 23.5058C33.3299 24.1702 33.2228 24.674 33.0402 25.0173C32.8638 25.37 32.656 25.5652 32.423 25.6093C32.1962 25.6597 31.9821 25.5589 31.7806 25.307C31.5854 25.0614 31.4594 24.6835 31.4027 24.1608C31.3523 23.7514 31.3271 23.2759 31.3271 22.7375C31.3271 22.2022 31.3429 21.6259 31.3775 21.0119C31.4185 20.3915 31.472 19.7618 31.5413 19.1225C31.6074 18.4865 31.6798 17.8598 31.7554 17.2458C31.831 16.6255 31.9097 16.0461 31.9947 15.5076C32.0766 14.9628 32.1522 14.4842 32.2214 14.0717C32.1364 13.1585 32.0514 12.2138 31.9695 11.2377C31.894 10.2647 31.8215 9.29796 31.7554 8.34069C31.6956 7.38343 31.6483 6.47339 31.6168 5.60744C31.5917 4.7352 31.5917 3.94482 31.6168 3.23947C31.642 2.52782 31.7082 1.92953 31.8184 1.45089C31.9254 0.981708 32.0829 0.629031 32.2844 0.392863C32.4859 0.150398 32.7001 0.0212925 32.9268 0.00239946C33.1598 -0.0133449 33.3802 0.0748244 33.5818 0.266907C33.7833 0.452693 33.9281 0.729796 34.0226 1.09822C34.1234 1.50128 34.1643 1.90434 34.1486 2.3074C34.1391 2.71046 34.1013 3.09462 34.0352 3.4536C33.9754 3.81572 33.903 4.13061 33.8211 4.39827C33.7361 4.65963 33.6731 4.85171 33.6321 4.97766C33.5629 5.1729 33.4684 5.29255 33.3424 5.34294C33.2165 5.39332 33.0937 5.39332 32.9772 5.34294C32.867 5.28626 32.7882 5.19809 32.7379 5.07843C32.6938 4.96192 32.7127 4.83596 32.7882 4.70056C32.9803 4.36678 33.1315 3.98891 33.2417 3.56696C33.3487 3.13871 33.4212 2.7199 33.4558 2.3074C33.4873 1.89804 33.4716 1.53906 33.4054 1.23677C33.3361 0.877794 33.2322 0.666818 33.0905 0.606989C32.9457 0.540862 32.804 0.594393 32.6623 0.770732C32.5174 0.94707 32.4009 1.21158 32.3096 1.56425C32.2088 1.97676 32.1333 2.46799 32.0829 3.03794C32.0388 3.61104 32.0199 4.23137 32.0199 4.90209C32.0262 5.57596 32.0482 6.26242 32.0829 6.96777C32.1144 7.67312 32.1585 8.36588 32.2088 9.04605C32.2655 9.71991 32.3222 10.3497 32.3726 10.9354C32.423 11.5148 32.4671 12.0155 32.5111 12.4343C32.5867 12.0155 32.6812 11.5242 32.8008 10.9606C32.9173 10.3906 33.0527 9.78289 33.2039 9.13422C33.3613 8.48869 33.5377 7.83057 33.7329 7.1567C33.925 6.47654 34.1391 5.81842 34.3753 5.17919C34.6178 4.53367 34.8791 3.93853 35.1562 3.39062C35.4396 2.84586 35.7419 2.37037 36.0631 1.96731C36.3906 1.56425 36.7433 1.26826 37.1211 1.07303C37.499 0.871496 37.8958 0.814817 38.3177 0.896688C38.7775 0.972261 39.1553 1.19268 39.4513 1.55166C39.7536 1.90434 39.9866 2.36723 40.1567 2.93718C40.333 3.50083 40.4527 4.14321 40.5219 4.8643C40.5975 5.58855 40.629 6.36003 40.6227 7.1819C40.6227 7.99746 40.5975 8.83192 40.5471 9.68842C40.503 10.5449 40.4495 11.3983 40.3834 12.2453C40.3236 13.0861 40.2637 13.8891 40.2071 14.6511C40.1567 15.4163 40.122 16.1185 40.1063 16.7546C40.0874 17.3843 40.1063 17.9228 40.1567 18.3668C40.1976 18.7636 40.2574 19.0218 40.333 19.1477C40.4149 19.2674 40.5093 19.28 40.6101 19.1855C40.7172 19.0847 40.8274 18.9053 40.9376 18.6439C41.0541 18.3762 41.1675 18.0519 41.2777 17.674C41.4446 17.0946 41.5957 16.4365 41.7311 15.6965C41.8728 14.9502 42.0114 14.1662 42.1468 13.3411C42.2885 12.5098 42.4428 11.688 42.6128 10.8724C42.7797 10.0505 42.9655 9.27277 43.167 8.54222C43.3685 7.80538 43.6016 7.1567 43.8724 6.6025C44.1243 6.09867 44.4077 5.69247 44.7289 5.38072C45.0469 5.07213 45.3775 4.8769 45.7239 4.80133C46.0672 4.72575 46.3915 4.77613 46.6938 4.95247C47.0024 5.12881 47.2637 5.45 47.4747 5.90974C47.692 6.36318 47.8337 6.97722 47.903 7.7487C47.9534 8.3281 47.9722 8.97047 47.9659 9.67583C47.9565 10.3749 47.9282 11.1054 47.8778 11.8675C47.8337 12.6326 47.7896 13.4041 47.7392 14.1851C47.6888 14.9597 47.6511 15.7154 47.6259 16.4523C47.6007 17.1828 47.5944 17.8724 47.6133 18.5179C47.6385 19.1572 47.7014 19.724 47.8022 20.2184C47.903 20.7064 48.0541 21.0937 48.2556 21.3771ZM32.5867 23.4554C32.6371 23.0524 32.6623 22.5737 32.6623 22.0195C32.6623 21.4653 32.6497 20.8828 32.6245 20.2687C32.6056 19.6578 32.5773 19.0407 32.5363 18.4172C32.5017 17.7874 32.4639 17.1954 32.423 16.6412C32.3789 16.0807 32.3379 15.5895 32.297 15.1675C32.2466 15.6304 32.1899 16.1626 32.1333 16.7672C32.0734 17.3654 32.0231 17.9889 31.9821 18.6439C31.938 19.2989 31.9128 19.9538 31.9065 20.6088C31.8971 21.2575 31.9097 21.8778 31.9443 22.473C31.9853 23.0618 32.0514 23.5814 32.1459 24.0348C32.212 24.3718 32.2718 24.5512 32.3222 24.5764C32.3789 24.5953 32.4293 24.4977 32.4733 24.2867C32.5143 24.0789 32.5521 23.8018 32.5867 23.4554Z" fill="#393939"/>
<path d="M55.6571 15.5206C55.6886 15.4293 55.7453 15.3884 55.8209 15.3947C55.9027 15.3947 55.9657 15.4261 56.0098 15.4828C56.0602 15.5427 56.0602 15.6182 56.0098 15.7095C55.7579 16.1063 55.4745 16.4873 55.1659 16.8557C54.8636 17.2273 54.5267 17.5548 54.1582 17.8382C53.7867 18.1153 53.371 18.3294 52.9113 18.4806C52.4137 18.6317 51.9194 18.679 51.425 18.6191C50.9275 18.5625 50.4961 18.3861 50.1276 18.0901C49.7561 17.7878 49.501 17.3659 49.3593 16.818C49.2523 16.3992 49.2397 15.9804 49.3215 15.5584C49.3971 15.1396 49.5482 14.7617 49.775 14.4248C50.008 14.091 50.304 13.8328 50.6567 13.6565C51.0093 13.4738 51.4061 13.4046 51.8532 13.4549C52.1618 13.499 52.4106 13.6061 52.5964 13.7824C52.779 13.9525 52.8861 14.154 52.9113 14.387C52.9428 14.6232 52.8892 14.8625 52.7475 15.105C52.6027 15.3506 52.3602 15.5584 52.017 15.7347C51.7147 15.8953 51.3778 16.0055 51.0093 16.0622C50.6472 16.1221 50.2945 16.1504 49.9513 16.1504C49.9324 16.2449 49.9198 16.3393 49.9135 16.4401C49.9135 16.5346 49.9167 16.629 49.9261 16.7298C49.9576 17.1077 50.0647 17.4226 50.241 17.6745C50.4236 17.9201 50.6567 18.1027 50.9338 18.2287C51.2172 18.3546 51.5258 18.4271 51.8532 18.4428C52.187 18.4522 52.5271 18.405 52.8735 18.3042C53.3017 18.1783 53.6922 17.9768 54.0449 17.6997C54.4039 17.4163 54.7187 17.0825 54.9896 16.7046C55.2572 16.3267 55.4808 15.9331 55.6571 15.5206ZM51.7273 14.3492C51.3998 14.2988 51.1101 14.3587 50.8582 14.5256C50.6126 14.6862 50.4079 14.916 50.241 15.2183C50.4677 15.2026 50.6976 15.1742 50.9338 15.1302C51.1668 15.0798 51.3872 15.0042 51.5887 14.9034C51.7147 14.8373 51.8155 14.7649 51.891 14.6893C51.9729 14.6137 52.0075 14.5476 51.9918 14.4878C51.9729 14.4216 51.8847 14.3744 51.7273 14.3492Z" fill="#393939"/>
<path d="M61.9403 15.5206C61.9718 15.4293 62.0285 15.3884 62.1041 15.3947C62.1859 15.3947 62.2489 15.4261 62.293 15.4828C62.3434 15.5427 62.3434 15.6182 62.293 15.7095C62.0411 16.1063 61.7577 16.4873 61.4491 16.8557C61.1468 17.2273 60.8099 17.5548 60.4414 17.8382C60.0699 18.1153 59.6542 18.3294 59.1945 18.4806C58.697 18.6317 58.2026 18.679 57.7082 18.6191C57.2107 18.5625 56.7793 18.3861 56.4108 18.0901C56.0393 17.7878 55.7842 17.3659 55.6425 16.818C55.5355 16.3992 55.5229 15.9804 55.6047 15.5584C55.6803 15.1396 55.8315 14.7617 56.0582 14.4248C56.2912 14.091 56.5872 13.8328 56.9399 13.6565C57.2925 13.4738 57.6893 13.4046 58.1364 13.4549C58.445 13.499 58.6938 13.6061 58.8796 13.7824C59.0622 13.9525 59.1693 14.154 59.1945 14.387C59.226 14.6232 59.1724 14.8625 59.0307 15.105C58.8859 15.3506 58.6434 15.5584 58.3002 15.7347C57.9979 15.8953 57.661 16.0055 57.2925 16.0622C56.9304 16.1221 56.5777 16.1504 56.2345 16.1504C56.2156 16.2449 56.203 16.3393 56.1967 16.4401C56.1967 16.5346 56.1999 16.629 56.2093 16.7298C56.2408 17.1077 56.3479 17.4226 56.5242 17.6745C56.7068 17.9201 56.9399 18.1027 57.217 18.2287C57.5004 18.3546 57.809 18.4271 58.1364 18.4428C58.4702 18.4522 58.8103 18.405 59.1567 18.3042C59.5849 18.1783 59.9754 17.9768 60.3281 17.6997C60.6871 17.4163 61.0019 17.0825 61.2728 16.7046C61.5404 16.3267 61.764 15.9331 61.9403 15.5206ZM58.0105 14.3492C57.683 14.2988 57.3933 14.3587 57.1414 14.5256C56.8958 14.6862 56.6911 14.916 56.5242 15.2183C56.7509 15.2026 56.9808 15.1742 57.217 15.1302C57.45 15.0798 57.6704 15.0042 57.8719 14.9034C57.9979 14.8373 58.0987 14.7649 58.1742 14.6893C58.2561 14.6137 58.2907 14.5476 58.275 14.4878C58.2561 14.4216 58.1679 14.3744 58.0105 14.3492Z" fill="#393939"/>
<path d="M68.5137 15.5327C68.5388 15.4572 68.5766 15.4257 68.627 15.432C68.6837 15.432 68.7309 15.454 68.7656 15.495C68.7971 15.539 68.8033 15.5894 68.7782 15.6461C68.7782 15.6461 68.7341 15.7311 68.6522 15.898C68.5672 16.0586 68.4633 16.2601 68.3373 16.5026C68.2114 16.7388 68.0791 16.9749 67.9468 17.208C67.8209 17.4441 67.7138 17.6425 67.632 17.7999C67.4367 18.1274 67.2195 18.4738 66.977 18.8328C66.7408 19.1949 66.4795 19.5318 66.1961 19.8404C65.919 20.1522 65.6167 20.4041 65.2892 20.5962C64.8767 20.8323 64.4894 20.93 64.1304 20.8859C63.7777 20.8355 63.4943 20.6277 63.2865 20.2561C63.0849 19.8782 62.9968 19.3051 63.022 18.5305C63.0472 18.1117 63.0755 17.7748 63.1101 17.5228C63.1511 17.2646 63.1763 17.0568 63.1857 16.9057C63.2015 16.7545 63.1794 16.638 63.1227 16.553C63.0629 16.4711 62.9369 16.3861 62.7449 16.3011C62.5591 16.2255 62.367 16.1247 62.1655 15.9988C61.9702 15.8728 61.8065 15.7532 61.6616 15.6335C61.4696 15.4414 61.3342 15.2241 61.2586 14.9785C61.1767 14.7361 61.1547 14.4873 61.1956 14.2354C61.2397 13.9835 61.3436 13.7631 61.5105 13.5678C61.7372 13.3002 61.9671 13.1364 62.2033 13.0766C62.4457 13.0105 62.6598 13.0262 62.8456 13.127C63.0377 13.2277 63.1731 13.3915 63.2487 13.6182C63.3243 13.8449 63.3117 14.1157 63.2109 14.4243C63.1511 14.6007 63.0755 14.7707 62.9842 14.9281C62.8897 15.0887 62.7952 15.2399 62.6945 15.3816C62.7606 15.4068 62.833 15.4414 62.9086 15.4824C62.9842 15.517 63.0535 15.5516 63.1227 15.5831C63.466 15.7437 63.7147 15.9043 63.8659 16.0618C64.017 16.2223 64.1052 16.4113 64.1304 16.6286C64.1556 16.8395 64.1335 17.104 64.0674 17.4221C63.9981 17.7433 63.91 18.1463 63.8029 18.6313C63.658 19.2957 63.6297 19.7838 63.7147 20.0923C63.7966 20.4041 63.9666 20.5773 64.2185 20.6088C64.4768 20.6434 64.7916 20.5647 65.1632 20.3695C65.4813 20.2026 65.7804 19.9664 66.0575 19.6641C66.3409 19.3618 66.6023 19.0406 66.8384 18.6942C67.0809 18.3416 67.2856 18.0109 67.4556 17.6992C67.6571 17.3465 67.8398 16.9907 68.0098 16.6286C68.1862 16.2696 68.3531 15.9043 68.5137 15.5327ZM61.8884 13.8827C61.8065 13.9929 61.7593 14.1283 61.7498 14.2858C61.7435 14.4464 61.7719 14.6007 61.838 14.7518C61.9073 14.903 62.008 15.0289 62.1529 15.1297C62.304 15.0226 62.4363 14.8967 62.5559 14.7518C62.6724 14.6101 62.7638 14.459 62.833 14.2984C62.9338 14.015 62.9338 13.8008 62.833 13.656C62.7386 13.5048 62.6 13.4482 62.4174 13.4797C62.241 13.5048 62.0647 13.6402 61.8884 13.8827Z" fill="#393939"/>
<mask id="mask0_3316_72020" style="mask-type:luminance" maskUnits="userSpaceOnUse" x="0" y="28" width="71" height="4">
<path d="M0 28.0103H70.9825V31.9999H0V28.0103Z" fill="white"/>
</mask>
<g mask="url(#mask0_3316_72020)">
<mask id="mask1_3316_72020" style="mask-type:luminance" maskUnits="userSpaceOnUse" x="-1" y="28" width="72" height="4">
<path d="M0.069243 31.0348C54.4413 28.4967 69.7513 27.2876 70.8534 28.4967C71.0109 28.6762 71.0109 28.9187 70.8534 29.1013C69.5435 30.6726 45.1615 29.2808 32.9973 29.7658C21.6203 30.1877 1.3288 32.9713 0.069243 31.6394C-0.0882017 31.4599 0.069243 31.0348 0.069243 31.0348Z" fill="white"/>
</mask>
<g mask="url(#mask1_3316_72020)">
<path d="M-2.02783 26.0786H73.0105V34.0579H-2.02783V26.0786Z" fill="#393939"/>
</g>
</g>
<mask id="mask2_3316_72020" style="mask-type:luminance" maskUnits="userSpaceOnUse" x="73" y="28" width="3" height="3">
<path d="M73.4797 28.354H75.6777V30.2969H73.4797V28.354Z" fill="white"/>
</mask>
<g mask="url(#mask2_3316_72020)">
<mask id="mask3_3316_72020" style="mask-type:luminance" maskUnits="userSpaceOnUse" x="73" y="28" width="3" height="3">
<path d="M74.2133 29.3437C75.1202 28.9784 73.911 28.4368 73.7882 28.5565C73.7284 28.6163 73.9708 29.1012 73.9708 29.1012C73.9708 29.1012 73.7882 28.6163 73.848 28.4966C74.0307 28.314 75.2997 28.314 75.5422 28.6163C75.7846 28.8588 75.6618 29.8255 75.3595 30.1278C75.0572 30.3702 73.7284 30.3104 73.5457 30.0081C73.3663 29.8255 73.6087 28.9784 73.7882 28.9186C73.911 28.9186 74.2133 29.3437 74.2133 29.3437Z" fill="white"/>
</mask>
<g mask="url(#mask3_3316_72020)">
<path d="M71.1274 26.0791H77.9511V32.5469H71.1274V26.0791Z" fill="#393939"/>
</g>
</g>
</svg>
