<svg width="135" height="34" viewBox="0 0 135 34" fill="none" xmlns="http://www.w3.org/2000/svg">
<path d="M5.82272 2.118C5.19724 1.48511 5.56561 0.115472 6.5063 0.0437766C7.40497 -0.0217384 8.30858 0.00298425 9.20849 0.0128733C9.78947 0.0375959 10.4224 0.0165828 10.9242 0.357755C11.5608 0.780512 12.0541 1.37509 12.5584 1.94124C13.5325 3.03274 14.3533 4.25157 15.3669 5.30846C15.5746 5.49264 15.7798 5.76954 16.0876 5.75717C16.336 5.61008 16.451 5.32824 16.6018 5.09461C15.6524 4.01423 14.7352 2.90542 13.7982 1.81392C13.331 1.24653 12.8106 0.721177 12.4101 0.101875C13.4039 0.056138 14.4311 -0.072419 15.4027 0.210655C16.137 0.412144 16.6537 1.00549 17.1766 1.51972C17.6574 2.02777 18.163 2.52346 18.5475 3.11186C18.8417 3.56057 18.8429 4.17369 18.5512 4.62364C16.3558 7.39628 13.9095 9.95878 11.6301 12.6622C11.3285 13.0442 10.9539 13.3816 10.7524 13.8316C10.7215 14.1369 11.0478 14.2976 11.2407 14.4768C13.4064 11.9576 15.6018 9.46186 17.7687 6.94386C17.9937 6.69045 18.2471 6.41233 18.6018 6.36535C19.1161 6.27264 19.5858 6.69293 19.7218 7.16266C19.7613 7.40123 19.7465 7.64598 19.7477 7.88703C19.7218 9.08484 19.8516 10.2802 19.7922 11.4768C19.7601 12.3025 19.3608 13.0701 18.8478 13.7006C17.477 15.3137 16.0962 16.917 14.734 18.5363C14.87 18.7366 14.9948 18.9504 15.1778 19.1136C15.4064 19.2557 15.582 18.9998 15.7229 18.8552C16.5944 17.8342 17.4745 16.8193 18.3509 15.802C18.7996 15.2939 19.2063 14.7463 19.7168 14.2951C19.7922 15.001 19.7515 15.7105 19.7638 16.4188C19.7626 16.8972 19.7972 17.3892 19.6526 17.854C19.3707 18.8527 18.7292 19.6933 18.0851 20.4869C17.7242 20.9035 17.3707 21.3547 16.8812 21.6254C16.5214 21.8256 16.0208 21.8306 15.7464 21.4869C13.1666 18.7761 10.9836 15.7192 8.43714 12.9799C8.25049 12.7871 8.04652 12.6115 7.84132 12.4397C7.68557 12.64 7.46554 12.818 7.41486 13.0775C7.66579 13.5287 8.03787 13.8959 8.35926 14.2976C10.0627 16.3397 11.8761 18.2891 13.5485 20.3584C13.7809 20.6575 14.0603 20.9319 14.2136 21.2842C14.3261 21.7169 14.2655 22.2138 14.0121 22.5871C13.7377 22.9221 13.284 23.0333 12.8687 23.0581C12.0145 23.1063 11.1579 23.0976 10.3037 23.0581C9.3321 23.0346 8.44703 22.466 7.85616 21.723C6.52979 20.1902 5.19477 18.6661 3.86346 17.1395C3.67433 17.3372 3.42463 17.5091 3.34428 17.7835C3.36777 18.048 3.5606 18.247 3.72006 18.4436C4.60637 19.4523 5.47413 20.4758 6.35055 21.4931C6.75477 21.9777 7.21213 22.4215 7.54218 22.9641C6.74364 23.0395 5.93027 23.0853 5.13296 22.9839C4.37769 22.8034 3.62117 22.4993 3.06739 21.9381C2.46663 21.3423 1.85598 20.7391 1.39366 20.0258C1.01664 19.4498 1.00923 18.6278 1.50368 18.116C3.96482 15.263 6.42225 12.4076 8.88586 9.55704C8.9934 9.405 9.19365 9.2443 9.06262 9.04405C8.98845 8.79435 8.67818 8.42845 8.44208 8.73131C6.27638 11.1096 4.26025 13.6202 2.144 16.0418C1.89801 16.336 1.58156 16.6351 1.16622 16.6042C0.576582 16.6561 0.129102 16.0912 0.0685318 15.5498C-0.0328309 14.5263 0.0104338 13.4941 0.00301703 12.4657C-0.00934429 11.5002 0.15259 10.4829 0.753349 9.69796C2.04387 7.92164 3.57667 6.33939 5.01429 4.68545C5.20589 4.4271 4.92158 4.1193 4.75841 3.92029C4.53097 3.67182 4.27879 4.00929 4.11686 4.16627C3.16628 5.27756 2.22311 6.39378 1.27252 7.50383C0.900447 7.92288 0.595125 8.42474 0.0858395 8.69175C0.0141439 7.38392 -0.131721 6.00193 0.386218 4.76085C0.846059 3.59147 1.64955 2.59515 2.52349 1.70761C2.76577 1.47892 3.03401 1.20945 3.39002 1.20327C3.75097 1.19338 4.04146 1.44431 4.2652 1.70019C6.69667 4.53835 9.14791 7.36291 11.5794 10.2023C11.6857 10.3185 11.7994 10.4297 11.9317 10.5188C12.2024 10.4236 12.4237 10.1726 12.436 9.87844C12.352 9.71156 12.2345 9.56693 12.1171 9.42478C10.0095 6.99825 7.9328 4.54329 5.82272 2.118ZM9.86735 10.1677C9.51258 10.4705 9.21714 10.8364 8.92047 11.1949C8.83518 11.3297 8.6547 11.4891 8.77089 11.6597C9.06015 12.1517 9.48662 12.5435 9.85745 12.9737C10.3161 12.5139 10.8389 12.075 11.1158 11.4755C10.8389 10.9736 10.4224 10.562 10.0206 10.1615C9.9823 10.1627 9.90567 10.1665 9.86735 10.1677Z" fill="#C30707"/>
<path d="M22.6972 2.82352C26.1905 2.77655 29.685 2.83959 33.1783 2.78149C33.2067 4.09674 33.3625 5.40951 33.339 6.72599C33.1227 6.74082 32.9088 6.7606 32.695 6.77791C32.4614 5.98678 32.2178 5.18083 31.7679 4.48241C31.3513 3.8594 30.5219 3.85569 29.8519 3.8421C28.9186 3.86435 27.9816 3.7976 27.052 3.873C26.7084 3.89649 26.7344 4.29575 26.7208 4.54669C26.7245 6.45898 26.7109 8.37004 26.7294 10.2823C27.6849 10.3046 28.6417 10.2972 29.5972 10.2935C30.0917 10.2749 30.6937 10.2341 30.9965 9.77924C31.2932 9.30703 31.3266 8.73223 31.4181 8.19698C31.6628 8.18339 31.9076 8.17227 32.1536 8.16485C32.161 9.92386 32.1474 11.6829 32.1622 13.4419C31.9224 13.4468 31.6838 13.4493 31.4465 13.4481C31.2635 12.7324 31.25 11.6779 30.3797 11.4505C29.177 11.2552 27.9445 11.3924 26.7294 11.3553C26.7121 13.1254 26.7208 14.8956 26.7232 16.6645C26.748 17.1898 26.7714 17.8215 27.2263 18.1726C27.6318 18.4396 28.1473 18.3889 28.6108 18.4111C29.3945 18.4037 30.1795 18.4235 30.9644 18.3988C31.4514 18.3778 31.9929 18.3073 32.3476 17.9352C33.1017 17.1626 33.517 16.1465 33.9571 15.1799C34.1907 15.2318 34.4231 15.2887 34.6555 15.3492C34.3872 16.7189 34.0275 18.0687 33.674 19.4174C29.9075 19.4445 26.1398 19.4396 22.3733 19.4198C22.3832 19.1812 22.3943 18.9427 22.4042 18.7053C23.0087 18.6411 23.6626 18.6411 24.1966 18.311C24.7046 17.9352 24.6614 17.2257 24.6923 16.662C24.6985 13.0389 24.696 9.41457 24.6935 5.79024C24.6626 5.21791 24.7145 4.5813 24.3845 4.08067C23.9803 3.58869 23.2744 3.6233 22.7033 3.52441C22.6972 3.28955 22.6959 3.05715 22.6972 2.82352Z" fill="#C30707"/>
<path d="M36.2736 2.81357C38.2922 2.79873 40.3108 2.81233 42.3294 2.80739C44.3047 2.79503 46.3827 2.93471 48.133 3.94216C49.9576 4.97803 51.0824 6.96944 51.3791 9.00906C51.6943 11.1649 51.368 13.448 50.3012 15.3615C49.473 16.8486 48.112 18.013 46.5335 18.6398C44.9302 19.285 43.1799 19.4544 41.4641 19.4346C39.7335 19.4222 38.0017 19.4507 36.2711 19.4198C36.2736 19.1799 36.2798 18.9414 36.2909 18.7028C36.8657 18.6311 37.5171 18.6484 37.9918 18.264C38.4047 17.8486 38.3318 17.2046 38.3664 16.6681C38.375 13.0413 38.3725 9.41327 38.3676 5.78646C38.333 5.20177 38.3948 4.53303 38.0091 4.04599C37.5555 3.60469 36.8694 3.622 36.2847 3.53176C36.2773 3.29195 36.2736 3.05338 36.2736 2.81357ZM41.6384 3.7555C41.2688 3.80865 40.8436 3.86799 40.5939 4.17702C40.3837 4.50336 40.4085 4.91376 40.3924 5.28707C40.3973 8.91758 40.3936 12.5481 40.3936 16.1786C40.4023 16.8461 40.5135 17.6101 41.0698 18.0514C41.6767 18.505 42.4827 18.4939 43.2046 18.4803C44.8783 18.442 46.5607 17.7077 47.5891 16.364C48.9526 14.6087 49.2802 12.2836 49.1652 10.1203C49.075 8.23647 48.4272 6.24878 46.9056 5.0386C45.4593 3.82225 43.4555 3.59851 41.6384 3.7555Z" fill="#C30707"/>
<path d="M53.6215 2.83601C55.666 2.77668 57.7118 2.81624 59.7576 2.815C59.7564 3.05234 59.7539 3.28968 59.749 3.52825C59.2286 3.59129 58.6587 3.56904 58.2051 3.86818C57.7427 4.2279 57.744 4.87811 57.7118 5.41088C57.6958 7.26631 57.7094 9.12298 57.7057 10.9796C57.718 12.2121 57.629 13.463 57.9133 14.6744C58.1581 15.8067 58.6896 16.9465 59.6637 17.6251C60.7663 18.4063 62.2274 18.4694 63.5044 18.1628C64.5378 17.9069 65.3808 17.1133 65.7776 16.1356C66.5143 14.3938 66.4253 12.4593 66.434 10.6088C66.4389 8.83496 66.4377 7.05864 66.3227 5.28726C66.2943 4.83855 66.2078 4.33791 65.8357 4.03753C65.319 3.61972 64.6218 3.59747 63.9914 3.51959C63.9877 3.28844 63.9877 3.05728 63.9914 2.82613C65.8505 2.78904 67.7109 2.80758 69.5713 2.81624C69.5639 3.05234 69.5552 3.28844 69.5503 3.52578C69.0138 3.60365 68.4192 3.63703 67.9866 4.00169C67.6133 4.3169 67.5416 4.83237 67.5243 5.29097C67.4353 7.59883 67.4674 9.90669 67.46 12.2145C67.4476 13.5817 67.3734 14.9761 66.9185 16.2777C66.5057 17.4273 65.7566 18.5077 64.6663 19.1023C63.5155 19.7364 62.157 19.8575 60.8677 19.7698C59.5623 19.6783 58.2285 19.2148 57.3299 18.2271C56.0876 16.9329 55.7439 15.0614 55.6908 13.3308C55.6661 11.0637 55.6846 8.79664 55.6809 6.52958C55.6549 5.74463 55.7563 4.91272 55.4349 4.17475C55.0579 3.56781 54.2395 3.62961 53.6215 3.52083C53.619 3.29215 53.619 3.06346 53.6215 2.83601Z" fill="#C30707"/>
<path d="M70.8705 2.81368C72.2241 2.8112 73.5789 2.78401 74.9324 2.82975C76.6284 7.12901 78.3145 11.432 80.0414 15.7176C81.9178 11.4579 83.6743 7.14384 85.531 2.87548C85.8264 2.76794 86.1503 2.81244 86.4593 2.80255C87.5162 2.8248 88.5744 2.77536 89.63 2.83593C89.63 3.06337 89.63 3.29082 89.6275 3.51951C89.0354 3.62829 88.3902 3.64683 87.8735 3.98924C87.4149 4.30445 87.4173 4.92128 87.405 5.41944C87.4433 8.89544 87.4693 12.3727 87.5113 15.8499C87.5607 16.5743 87.4989 17.3493 87.8228 18.0206C88.206 18.6485 89.0441 18.6114 89.6856 18.7041C89.6955 18.9427 89.7042 19.1801 89.7128 19.4186C87.6485 19.4372 85.5829 19.4532 83.5211 19.4112C83.5186 19.1763 83.5211 18.9415 83.5272 18.7078C84.0588 18.6337 84.6744 18.6572 85.0971 18.2727C85.4655 17.8796 85.4432 17.295 85.4741 16.7931C85.4803 13.8659 85.489 10.94 85.4976 8.01284C85.4816 7.13643 85.5359 6.25877 85.4667 5.38483C84.8091 6.78784 84.28 8.24894 83.6694 9.67297C82.3912 12.8016 81.0649 15.9117 79.8621 19.0713C79.8114 19.2023 79.7422 19.3222 79.6557 19.4322C79.3949 19.4631 79.0685 19.4891 79.0203 19.1553C77.6334 15.2603 76.1846 11.3862 74.7223 7.51839C74.4627 6.85088 74.2427 6.1673 73.9213 5.52699C73.8038 9.2428 73.5949 12.9537 73.5208 16.6707C73.5183 17.2183 73.5319 17.8747 73.9954 18.2517C74.4812 18.609 75.1129 18.6312 75.6889 18.7041C75.6988 18.9427 75.7038 19.1813 75.7087 19.4211C73.8768 19.4421 72.0448 19.4396 70.2141 19.4211C70.2079 19.1961 70.2079 18.9711 70.2141 18.7462C70.7976 18.6151 71.491 18.557 71.8841 18.0416C72.292 17.4643 72.3007 16.7239 72.3749 16.0477C72.6196 12.652 72.789 9.25021 73.0362 5.85456C73.0486 5.26122 73.2154 4.52695 72.7309 4.06835C72.2142 3.64806 71.512 3.62211 70.8829 3.52816C70.8742 3.28959 70.8693 3.05101 70.8705 2.81368Z" fill="#C30707"/>
<path d="M91.8971 2.81305C95.3916 2.79574 98.8861 2.82665 102.381 2.78833C102.408 4.10357 102.551 5.41387 102.548 6.73035C102.316 6.74148 102.086 6.7526 101.858 6.75631C101.666 5.97013 101.412 5.18519 100.978 4.4979C100.677 4.01704 100.079 3.88231 99.5512 3.85758C98.6884 3.82174 97.8255 3.85758 96.9627 3.8378C96.6426 3.8514 96.2927 3.79948 96.0072 3.97501C95.8996 4.32113 95.9219 4.68826 95.9194 5.04674C95.938 6.79216 95.9071 8.53757 95.9355 10.283C96.896 10.304 97.8577 10.2991 98.8182 10.2941C99.2842 10.2706 99.8417 10.2447 100.151 9.83922C100.494 9.35713 100.524 8.74154 100.618 8.17663C100.866 8.17415 101.117 8.17539 101.368 8.18033C101.355 9.93317 101.35 11.686 101.372 13.4388C101.117 13.4438 100.865 13.445 100.614 13.4413C100.518 12.8739 100.476 12.2559 100.12 11.7799C99.8108 11.4005 99.278 11.3831 98.8293 11.3609C97.8651 11.3424 96.9009 11.3572 95.938 11.3547C95.9071 13.042 95.9355 14.7294 95.9219 16.4179C95.938 16.9519 95.9108 17.5502 96.2445 18.0039C96.5288 18.3673 97.0319 18.3846 97.4559 18.4044C98.2817 18.418 99.1062 18.4106 99.9319 18.4081C100.47 18.3932 101.084 18.3846 101.496 17.9816C102.29 17.2078 102.708 16.1546 103.164 15.1645C103.393 15.2386 103.623 15.3103 103.855 15.3833C103.581 16.7381 103.211 18.0694 102.884 19.4106C99.1198 19.4576 95.3545 19.4328 91.5905 19.4229C91.5843 19.1943 91.5843 18.9656 91.5893 18.7394C92.1987 18.6331 92.8662 18.6417 93.4064 18.3018C93.8971 17.9173 93.8588 17.2239 93.8909 16.6639C93.8996 12.9988 93.9008 9.33241 93.8897 5.66728C93.8526 5.09248 93.9058 4.41384 93.4756 3.96513C93.0454 3.59552 92.4372 3.61159 91.9069 3.53124C91.8995 3.29143 91.8958 3.05286 91.8971 2.81305Z" fill="#C30707"/>
<path d="M105.573 2.81635C109.072 2.80151 112.572 2.80893 116.071 2.80151C116.071 4.09574 116.205 5.38379 116.245 6.67679C116.013 6.71387 115.783 6.74848 115.552 6.77691C115.319 5.94623 115.069 5.09206 114.565 4.38129C114.068 3.80772 113.231 3.8547 112.542 3.8411C111.653 3.86953 110.758 3.79042 109.872 3.87818C109.565 3.92763 109.616 4.3133 109.593 4.54199C109.593 6.45428 109.597 8.36534 109.592 10.2764C110.533 10.311 111.475 10.2925 112.417 10.2962C112.916 10.2789 113.518 10.2554 113.843 9.81285C114.166 9.33076 114.194 8.73 114.308 8.17745C114.539 8.1725 114.77 8.17003 115.004 8.17127C115.053 9.93152 115.02 11.693 115.022 13.4545C114.779 13.452 114.538 13.4483 114.298 13.4397C114.191 12.8859 114.14 12.2901 113.815 11.8117C113.526 11.4198 112.995 11.3864 112.553 11.363C111.565 11.3407 110.579 11.3543 109.593 11.3593C109.602 13.1665 109.582 14.9762 109.602 16.7834C109.632 17.3088 109.681 17.9837 110.221 18.2433C110.796 18.4794 111.439 18.3904 112.047 18.4114C112.875 18.3879 113.717 18.4757 114.535 18.31C114.966 18.226 115.288 17.9033 115.543 17.5659C116.093 16.8501 116.46 16.017 116.812 15.1913C117.045 15.2345 117.276 15.2803 117.51 15.3285C117.324 16.5238 116.977 17.687 116.705 18.8638C116.626 19.0962 116.601 19.5066 116.255 19.4312C112.584 19.4275 108.912 19.4485 105.242 19.4201C105.245 19.1803 105.252 18.9404 105.264 18.7019C105.886 18.6413 106.575 18.6586 107.105 18.2779C107.569 17.8922 107.53 17.221 107.561 16.6734C107.565 13.0008 107.567 9.32952 107.56 5.65698C107.527 5.0933 107.571 4.43815 107.172 3.98696C106.744 3.605 106.126 3.62107 105.592 3.53454C105.585 3.29473 105.576 3.05492 105.573 2.81635Z" fill="#C30707"/>
<path d="M119.136 2.83507C120.646 2.7745 122.156 2.82395 123.667 2.80788C125.009 2.82271 126.389 2.72629 127.69 3.13051C128.788 3.46921 129.726 4.31843 130.1 5.41488C130.546 6.71035 130.463 8.22213 129.757 9.41253C129.225 10.347 128.32 10.9886 127.379 11.4682C128.328 13.1753 129.295 14.8762 130.388 16.4956C130.84 17.1421 131.294 17.8034 131.896 18.3226C132.22 18.6093 132.647 18.7391 132.986 19.0074C132.984 19.2175 132.961 19.4277 132.946 19.639C131.963 19.6081 130.924 19.5661 130.048 19.0679C129.291 18.6452 128.772 17.9258 128.317 17.2113C127.485 15.9133 126.774 14.5449 126.018 13.205C125.798 12.8329 125.535 12.4213 125.093 12.3001C124.493 12.1506 123.867 12.2111 123.255 12.2099C123.232 13.734 123.242 15.2607 123.249 16.786C123.282 17.3176 123.27 17.9727 123.743 18.3263C124.216 18.6291 124.8 18.6365 125.337 18.7391C125.338 18.9666 125.337 19.194 125.334 19.4227C123.277 19.44 121.222 19.4413 119.165 19.4227C119.159 19.1928 119.157 18.9654 119.162 18.7379C119.763 18.5995 120.502 18.6452 120.947 18.1483C121.279 17.6402 121.209 16.9962 121.238 16.4177C121.233 12.7933 121.244 9.16901 121.233 5.54467C121.197 4.98471 121.235 4.27888 120.724 3.91175C120.249 3.62125 119.67 3.61755 119.139 3.52113C119.134 3.29244 119.133 3.06376 119.136 2.83507ZM123.802 3.82151C123.253 3.94883 123.237 4.59409 123.24 5.04651C123.259 7.13928 123.216 9.23329 123.263 11.3261C124.082 11.31 124.918 11.3842 125.724 11.1926C126.468 11.0232 127.103 10.5201 127.535 9.9008C128.133 9.03056 128.234 7.9267 128.155 6.90071C128.085 6.03665 127.782 5.15035 127.132 4.55082C126.25 3.74239 124.934 3.55079 123.802 3.82151Z" fill="#C30707"/>
<path d="M29.1782 23.4255C29.413 22.9768 29.6392 22.3896 30.2412 22.3896C30.2845 22.6567 30.3933 22.9669 30.2041 23.2055C29.9841 23.475 29.6343 23.5726 29.3302 23.7111C28.4464 25.8694 28.3734 28.2699 27.3685 30.3862C26.743 31.7163 25.8369 33.0315 24.4561 33.652C23.5253 34.0476 22.3967 34.1626 21.4709 33.6978C20.7317 33.3294 20.299 32.5309 20.2236 31.7299C20.1272 30.6989 20.3707 29.5802 21.0926 28.8076C21.2385 28.6321 21.461 28.5654 21.6674 28.4887C21.1347 29.045 20.6662 29.7001 20.5438 30.4789C20.4029 31.2391 20.4597 32.0958 20.9591 32.7212C21.5883 33.5445 22.7948 33.8647 23.7454 33.4419C24.9296 32.9388 25.8097 31.9165 26.4488 30.8275C27.1435 29.6433 27.6219 28.3429 27.9618 27.014C28.2461 25.9176 28.6528 24.8594 29.01 23.7852C27.811 24.0844 26.5885 24.6134 25.7986 25.5999C25.2732 26.2983 24.9753 27.1698 24.9728 28.0449C24.9815 28.4331 25.1088 28.9325 25.5303 29.0586C26.0977 29.092 26.5069 28.5765 26.6552 28.0808C26.8221 27.616 26.6367 27.1067 26.8122 26.6469C27.1633 27.4578 26.9123 28.4492 26.2757 29.045C25.9951 29.2984 25.581 29.4529 25.2102 29.3305C24.7565 29.1253 24.466 28.6432 24.4339 28.155C24.3647 27.2563 24.6811 26.3515 25.2188 25.637C26.1719 24.3885 27.7084 23.8075 29.1782 23.4255ZM29.4785 23.3699C29.7666 23.2883 30.0224 23.1375 30.0039 22.7988C29.7727 22.9323 29.6021 23.1363 29.4785 23.3699Z" fill="#C30707"/>
<path d="M90.0577 23.9779C90.7363 22.8184 92.2938 22.3622 93.53 22.7998C94.2976 23.0631 94.6091 24.0916 94.174 24.7566C93.9762 25.0385 93.6709 25.3005 93.3025 25.2486C93.5065 25.0755 93.755 24.9519 93.9379 24.7517C94.3322 24.0038 93.7327 22.9853 92.8909 22.9519C91.9725 22.9148 90.9848 23.361 90.5324 24.1868C90.2184 24.7418 90.3581 25.4736 90.8105 25.9112C91.5695 26.6553 92.6412 27.015 93.3248 27.847C93.8304 28.4576 93.9305 29.3316 93.687 30.0732C93.3742 31.0127 92.7562 31.8421 91.9737 32.4454C91.08 33.1376 89.8735 33.3725 88.7746 33.1549C87.8067 32.9584 86.9933 32.1969 86.7041 31.2574C86.4099 30.3192 86.5458 29.2908 86.9488 28.4057C87.2035 27.8445 87.5236 27.2412 88.1256 26.994C87.8055 27.5837 87.3802 28.13 87.2232 28.7963C86.9587 29.8235 86.8561 31.03 87.4841 31.9497C87.9847 32.6914 88.934 32.9645 89.7894 32.9361C91.2876 32.8582 92.6585 31.7235 93.0281 30.2698C93.2469 29.5269 93.169 28.6443 92.6177 28.062C91.9218 27.3673 90.9329 27.0583 90.2468 26.3512C89.6461 25.7245 89.5793 24.6936 90.0577 23.9779Z" fill="#C30707"/>
<path d="M62.7256 22.854C63.3918 22.6846 64.1916 22.7081 64.7182 23.205C65.0965 23.5437 65.1743 24.1259 64.9543 24.5746C64.6453 25.2063 64.0025 25.7181 63.2769 25.7218C63.6131 25.4498 64.0717 25.3003 64.2917 24.9035C64.4945 24.5549 64.6193 24.1395 64.555 23.7353C64.4784 23.3447 64.1051 23.0715 63.7169 23.0592C62.4561 22.9689 61.2125 23.7576 60.6921 24.8973C60.4733 25.4103 60.4165 26.0642 60.7626 26.5352C61.1495 26.9616 61.7997 26.9579 62.2311 27.3238C62.2484 27.4684 62.2608 27.6131 62.2682 27.7614C61.4227 27.8281 60.4758 27.6131 59.7378 28.1409C58.7329 28.885 58.3398 30.3301 58.7724 31.4945C59.0023 32.0977 59.6229 32.476 60.2508 32.5267C61.461 32.6824 62.6032 32.0446 63.4833 31.2732C63.937 30.8344 64.4376 30.3214 64.4809 29.6576C64.4055 29.4129 64.2176 29.2299 64.0767 29.0247C64.3264 29.1236 64.6193 29.2163 64.7306 29.4895C64.9308 29.958 64.7343 30.4895 64.466 30.8876C63.754 31.9061 62.5772 32.5106 61.3819 32.7504C60.6316 32.874 59.8194 32.8505 59.1321 32.497C58.4461 32.146 58.0579 31.382 58.0097 30.6342C57.9739 29.5995 58.4436 28.5525 59.2632 27.9134C59.6859 27.555 60.2236 27.3819 60.7527 27.2484C60.4288 26.9245 60.0271 26.6155 59.9257 26.1433C59.8231 25.5462 60.0283 24.9294 60.3658 24.4399C60.9307 23.6525 61.775 23.0641 62.7256 22.854Z" fill="#C30707"/>
<path d="M113.374 23.1827C113.958 22.7859 114.747 22.4806 115.43 22.8057C116.074 23.1814 116.206 24.0109 116.224 24.6932C116.276 25.7971 115.884 26.8466 115.754 27.9294C116.264 26.8392 116.685 25.697 117.36 24.6932C117.626 24.3273 118 23.9738 118.473 23.9342C118.827 23.9108 119.039 24.2754 119.088 24.582C119.208 25.3051 119.052 26.0369 118.945 26.7526C118.8 27.6834 118.552 28.5932 118.368 29.5166C119.012 28.2137 119.662 26.9096 120.447 25.6846C120.797 25.1766 121.172 24.6388 121.733 24.3459C121.949 24.2235 122.323 24.1926 122.41 24.4905C122.621 25.1086 122.431 25.7736 122.245 26.3744C121.83 27.5611 121.415 28.7515 121.161 29.9851C120.968 30.8974 120.754 31.864 121.03 32.7825C121.144 33.2337 121.667 33.2881 122.017 33.4784C121.469 33.56 120.884 33.3066 120.631 32.8035C120.282 32.0964 120.373 31.2707 120.495 30.5191C120.777 29.0617 121.287 27.6637 121.737 26.2532C121.886 25.7711 122.018 25.2483 121.818 24.76C121.171 25.0035 120.798 25.6142 120.429 26.1593C119.491 27.6117 118.832 29.2199 118.141 30.7973C117.897 31.3152 117.793 31.8937 117.505 32.3894C117.387 32.5983 117.124 32.513 116.934 32.5414C116.963 31.9357 117.269 31.403 117.456 30.8393C118.084 29.0172 118.5 27.1148 118.623 25.1889C118.626 24.8576 118.669 24.4077 118.321 24.2272C117.913 24.2507 117.679 24.6413 117.476 24.9454C116.381 26.7798 115.578 28.7737 114.95 30.8108C114.735 31.4289 114.581 32.068 114.328 32.6712C114.234 32.979 113.883 32.8838 113.645 32.8838C114.51 30.5562 115.246 28.168 115.657 25.7143C115.752 25.0394 115.824 24.3385 115.653 23.671C115.56 23.3088 115.293 22.9404 114.89 22.9181C114.379 22.8786 113.922 23.1753 113.532 23.4682C112.485 24.2742 111.726 25.4213 111.299 26.6636C111.015 27.5907 110.868 28.6044 111.145 29.5512C111.292 30.0568 111.713 30.5846 112.292 30.5463C112.914 30.5068 113.315 29.9493 113.57 29.44C113.847 28.8553 114.104 28.1791 113.916 27.5314C113.8 27.1606 113.328 27.1927 113.039 27.0444C113.314 26.9455 113.667 26.8194 113.919 27.0419C114.265 27.3868 114.293 27.927 114.233 28.3856C114.057 29.3337 113.502 30.2682 112.616 30.7045C112.134 30.9493 111.553 30.7404 111.21 30.3597C110.603 29.7119 110.476 28.7638 110.559 27.9134C110.763 26.032 111.822 24.2618 113.374 23.1827Z" fill="#C30707"/>
<path d="M55.5795 25.9588C55.7921 25.4705 56.0356 24.8537 56.6487 24.7993C56.7761 25.2122 56.8045 25.656 56.6698 26.0725C56.3632 27.0998 55.9825 28.1146 55.4398 29.0417C55.2037 29.4583 54.8588 29.8267 54.7587 30.3075C54.6524 30.8007 54.5399 31.3422 54.7488 31.8243C54.9367 32.048 55.2346 31.8762 55.3644 31.6796C55.7822 31.0937 55.9145 30.3619 56.2903 29.7513C56.1815 30.4806 55.9219 31.2012 55.4843 31.7983C55.2544 32.1246 54.734 32.3496 54.4039 32.0393C54.1653 31.7439 54.2222 31.3323 54.1629 30.9812C53.9305 31.3867 53.7686 31.8799 53.3656 32.1518C53.1851 32.2866 52.9589 32.1259 52.8761 31.9578C52.7512 31.6846 52.7524 31.3768 52.703 31.0863C52.4088 31.4658 52.2246 32.048 51.7203 32.1815C51.2073 32.1518 51.2308 31.5066 51.1801 31.132C50.9786 31.509 50.8068 31.9491 50.4248 32.179C50.0045 32.3632 49.6609 31.8898 49.6967 31.5041C49.6349 30.6475 50.2604 29.9478 50.2925 29.1122C49.2567 29.7611 48.9377 31.0344 48.4346 32.0715C48.2974 32.2866 48.002 32.1531 47.9303 31.9528C47.5941 32.0789 47.2455 32.022 46.9216 31.8898C46.6311 32.0257 46.2862 32.3014 45.9686 32.0801C45.683 31.8576 45.7053 31.4522 45.6237 31.1333C45.3863 31.5226 45.2071 32.1135 44.683 32.1654C44.2071 32.1667 44.1861 31.598 44.1131 31.2556C43.856 31.6215 43.6199 32.2186 43.0797 32.1555C42.5667 32.0344 42.6026 31.4015 42.5321 30.9923C42.2787 31.4287 42.1143 32.0332 41.5902 32.2112C41.097 32.09 41.1625 31.4744 41.0834 31.0875C40.8151 31.4584 40.626 31.9281 40.2119 32.1617C39.6804 32.294 39.6136 31.6129 39.5469 31.2519C39.3355 31.5832 39.1723 31.9948 38.8077 32.1864C38.4368 32.3385 38.1228 31.9664 38.108 31.6228C38.0103 30.729 38.6049 29.9799 38.7421 29.1295C38.1451 29.3359 37.8682 29.9528 37.5678 30.4583C37.2439 31.0035 37.1092 31.6413 36.7569 32.1691C36.5517 32.2557 36.4355 32.0925 36.3267 31.9503C36.124 32.048 35.9176 32.2655 35.6839 32.1234C35.3663 31.7835 35.3786 31.2717 35.4862 30.8489C35.6123 30.2643 35.9435 29.7463 36.0647 29.1616C36.0882 28.8081 35.6666 28.8056 35.4268 28.7314C35.124 29.729 34.9052 30.7822 34.3378 31.6734C34.098 32.0603 33.5986 32.3607 33.1499 32.1481C32.7222 31.9417 32.6752 31.4275 32.6332 31.0121C32.386 31.4584 32.1684 32.1147 31.5788 32.1654C31.0645 32.1296 31.0447 31.4967 30.9335 31.1184C30.7048 31.4893 30.5404 31.9442 30.1523 32.179C29.7307 32.3644 29.3883 31.8885 29.4242 31.5041C29.3624 30.6475 29.9891 29.9478 30.02 29.1122C29.0237 29.7414 28.6714 30.954 28.2177 31.9751C28.1485 32.2285 27.832 32.1691 27.6355 32.247C27.8889 31.3743 28.2103 30.5214 28.507 29.6623C28.6874 29.1938 28.8259 28.6956 29.1275 28.2864C29.2944 28.2667 29.4625 28.2555 29.6318 28.2531C29.3871 28.8081 29.0892 29.3446 28.9483 29.9404C29.5231 29.305 30.0373 28.5349 30.9001 28.2654C30.5985 29.4979 29.8445 30.6475 29.9434 31.9553C30.1275 31.8663 30.3476 31.802 30.4489 31.6067C31.1548 30.5337 31.2883 29.2308 31.6245 28.0207C31.5231 28.0058 31.3204 27.9762 31.219 27.9613C31.2203 27.9094 31.2227 27.8044 31.224 27.7524C31.4032 27.7129 31.5837 27.682 31.7592 27.6251C32.0905 26.8785 32.2314 26.0305 32.7407 25.3716C32.8705 25.18 33.114 25.1578 33.3168 25.0948C33.6196 25.9551 33.1499 26.7907 32.9311 27.6078C33.0769 27.6993 33.2216 27.7982 33.3662 27.8971C33.1647 27.9354 32.9632 27.9688 32.763 28.0021C32.5269 28.4941 32.2858 28.9861 31.9756 29.4373C31.4626 30.1184 31.4144 31.0405 31.5132 31.8589C31.6999 31.7995 31.9298 31.7909 32.0534 31.6153C32.7827 30.7327 32.7828 29.4843 33.4948 28.5918C33.7383 28.284 34.0943 27.9465 34.5195 28.017C34.9695 28.1641 34.8792 28.7574 34.747 29.1048C34.5133 29.7958 33.873 30.2296 33.1993 30.4274C33.1091 30.954 33.0547 31.5177 33.3365 32.001C33.8977 31.9874 34.2624 31.5276 34.4713 31.0554C35.0041 29.8675 35.3193 28.5918 35.5158 27.3074C35.5591 27.164 35.5517 26.8735 35.7791 26.9193C35.9707 26.8884 35.988 27.1764 36.0375 27.3074C36.1018 27.7425 35.8372 28.122 35.6617 28.4966C36.0301 28.4805 36.4009 28.462 36.7705 28.4509C36.6246 29.4249 36.0993 30.2927 35.9435 31.2655C35.9077 31.4769 35.8904 31.7155 36.0338 31.8959C36.2142 31.7884 36.3638 31.6351 36.459 31.4472C36.9732 30.4979 37.1896 29.42 37.6852 28.4632C37.7804 28.1789 38.1228 28.2939 38.3503 28.2531C38.0536 28.792 37.7656 29.3446 37.616 29.9453C38.2032 29.3112 38.7174 28.5139 39.5963 28.263C39.2601 29.488 38.5406 30.6425 38.6049 31.9503C38.7607 31.8749 38.9597 31.8465 39.0648 31.692C39.6828 30.8761 39.6977 29.7846 40.2613 28.9379C40.5605 28.436 41.0722 27.9341 41.7039 28.0009C42.055 28.0417 42.233 28.3656 42.3343 28.6659C42.0686 28.5263 41.7731 28.1307 41.4604 28.3915C40.9264 28.7957 40.6347 29.4274 40.3541 30.017C40.1328 30.5461 39.8732 31.1271 40.0116 31.7118C40.0957 31.9985 40.3738 31.7798 40.4999 31.6462C41.1081 30.9268 41.291 29.9701 41.7212 29.1517C41.8238 28.8909 42.1353 29.0121 42.3492 28.9812C42.0105 29.933 41.4962 30.8798 41.6112 31.9256C41.762 31.823 41.94 31.7414 42.0364 31.577C42.725 30.5127 42.8708 29.2296 43.186 28.0281C43.0018 27.949 42.8226 27.8625 42.652 27.7611C42.8708 27.7302 43.0933 27.7055 43.3146 27.6832C43.6125 26.9193 43.8053 26.0948 44.28 25.4149C44.416 25.2295 44.7201 24.9341 44.9018 25.2357C45.1861 26.0577 44.6669 26.8748 44.4753 27.6622C44.6014 27.6906 44.856 27.745 44.9821 27.7734C44.7893 27.8983 44.5742 27.9774 44.3468 28.0021C44.0353 28.6437 43.6694 29.2543 43.2886 29.8563C43.0575 30.4954 42.9586 31.2087 43.1032 31.8799C43.3962 31.8082 43.6706 31.6561 43.8029 31.3694C44.3282 30.4052 44.7238 29.3409 44.8066 28.2382C45.0106 28.2494 45.2158 28.263 45.421 28.2815C45.2083 29.1839 44.8882 30.0566 44.636 30.9491C44.5421 31.2606 44.5445 31.5882 44.5606 31.9108C44.7497 31.8576 45.0019 31.8811 45.1107 31.6821C45.7868 30.7093 45.8301 29.4126 46.646 28.5213C46.8895 28.2358 47.285 27.9391 47.6744 28.1282C48.0613 28.4187 48.0267 28.9737 48.0082 29.4076C47.9587 30.216 47.5372 30.9194 47.175 31.6178C47.2146 31.9306 47.6979 31.938 47.8438 31.6932C48.6225 30.692 48.7054 29.3359 49.4001 28.2864C49.5669 28.2667 49.7351 28.2555 49.9044 28.2531C49.6597 28.8081 49.3617 29.3446 49.2208 29.9404C49.7956 29.305 50.3099 28.5337 51.1714 28.2667C50.8711 29.4978 50.117 30.6475 50.2159 31.954C50.3704 31.87 50.5657 31.8304 50.6708 31.6772C51.3086 30.8094 51.347 29.6585 51.9799 28.7858C52.2753 28.347 52.7599 27.9366 53.3235 28.0009C53.6734 28.0417 53.8526 28.3656 53.954 28.6659C53.6882 28.5263 53.3928 28.1319 53.08 28.3915C52.546 28.7945 52.2543 29.4262 51.9749 30.017C51.7524 30.5461 51.4941 31.1271 51.6313 31.7105C51.7141 31.9973 51.9935 31.781 52.1196 31.6462C52.7277 30.9268 52.9107 29.9701 53.3409 29.1517C53.4434 28.8909 53.7537 29.0133 53.9676 28.9812C53.6301 29.933 53.1159 30.8798 53.2308 31.9256C53.4125 31.8144 53.6079 31.7019 53.7055 31.5029C54.0318 30.9256 54.2877 30.305 54.4497 29.6635C54.7352 28.4039 55.0949 27.1566 55.5795 25.9588ZM55.7303 26.9724C55.4905 27.7141 55.1975 28.4459 55.0653 29.2185C55.5127 28.6832 55.7513 28.0194 56.0257 27.389C56.2865 26.7128 56.5882 26.0206 56.5474 25.2789C56.1221 25.7573 55.9417 26.3828 55.7303 26.9724ZM32.2895 27.6882C32.3884 27.6919 32.585 27.698 32.6839 27.7018C32.9298 26.9972 33.2735 26.2864 33.1919 25.52C32.6727 26.1306 32.5207 26.944 32.2895 27.6882ZM43.8733 27.7401C43.9697 27.7116 44.1626 27.6573 44.259 27.6288C44.5655 26.9724 44.7955 26.258 44.7856 25.5274C44.2231 26.122 44.0711 26.9737 43.8733 27.7401ZM32.2129 27.9527C32.046 28.3878 31.9039 28.834 31.8285 29.2951C32.1498 28.8971 32.3649 28.4274 32.5565 27.9564C32.47 27.9552 32.2982 27.9539 32.2129 27.9527ZM43.7411 27.9626C43.61 28.4447 43.4629 28.9218 43.348 29.4076C43.6669 28.9676 43.9339 28.4867 44.081 27.9613C43.9969 27.9613 43.8263 27.9626 43.7411 27.9626ZM34.1623 28.5201C33.7692 29.0071 33.5022 29.5844 33.3093 30.1752C34.1561 29.9651 34.7025 29.1097 34.6382 28.2555C34.4701 28.3248 34.271 28.3606 34.1623 28.5201ZM46.8771 28.9985C46.4642 29.7216 46.1812 30.5399 46.1305 31.3755C46.0971 31.6067 46.217 32.0208 46.5223 31.891C47.1775 31.7093 46.4717 30.8712 46.9377 30.5374C47.1021 30.577 47.2504 30.6586 47.4049 30.7303C47.6472 30.0232 47.9946 29.2234 47.6856 28.4855C47.3172 28.326 47.0514 28.7389 46.8771 28.9985Z" fill="#C30707"/>
<path d="M68.6033 24.893C68.7887 24.8571 68.9791 24.8546 69.1707 24.8435C68.5711 26.4628 67.8702 28.0451 67.3301 29.6879C67.1063 30.4036 66.7713 31.1379 66.9271 31.9055C67.157 31.8141 67.3956 31.6991 67.5019 31.458C68.0445 30.4803 68.2819 29.3715 68.7269 28.3517C68.8431 28.0451 69.2473 28.1897 69.5019 28.1291C69.0025 28.9475 68.7467 29.877 68.4339 30.7757C68.2881 31.1577 68.2757 31.5742 68.4043 31.9649C68.6292 31.8314 68.8542 31.6768 68.9729 31.4346C69.5427 30.4086 69.8691 29.2738 70.2943 28.186C70.4958 28.1675 70.6985 28.1539 70.9037 28.1427C70.502 28.9611 70.2139 29.8276 69.9581 30.6991C69.8332 31.0897 69.827 31.5025 69.895 31.9043C70.0545 31.8141 70.2535 31.7597 70.3635 31.6002C71.0471 30.6286 71.1077 29.3356 71.8827 28.4184C72.151 28.0921 72.7134 27.8869 73.0546 28.2169C73.355 28.6026 73.1745 29.1131 72.9619 29.4951C72.884 29.505 72.7295 29.526 72.6516 29.5359C72.8321 29.1354 72.9854 28.7039 72.863 28.2614C72.6318 28.3467 72.3784 28.4295 72.2437 28.6533C71.7702 29.3047 71.4847 30.0921 71.3994 30.8919C71.3846 31.2528 71.3697 31.7003 71.6788 31.9525C72.0236 32.0959 72.3871 31.8647 72.5811 31.5829C73.1164 30.9179 73.0917 30.0118 73.4934 29.2825C73.7851 28.6903 74.2561 28.0612 74.9644 27.9932C75.3723 27.9586 75.6702 28.2985 75.7395 28.673C75.5528 28.5494 75.3797 28.4073 75.1881 28.2935C74.9075 28.2911 74.706 28.5272 74.5367 28.72C74.0719 29.3035 73.7654 29.9969 73.5206 30.6966C73.3846 31.0662 73.3883 31.4642 73.4229 31.8524C73.5824 31.8066 73.7789 31.8153 73.8964 31.6768C74.5763 30.9191 74.711 29.856 75.2401 29.013C75.4242 28.9796 75.6134 28.9858 75.8037 28.9833C75.4131 29.9141 74.9125 30.8869 75.067 31.929C75.245 31.7967 75.4366 31.6657 75.5392 31.4605C76.1709 30.4135 76.2932 29.1774 76.6196 28.0216C76.5182 28.0068 76.3155 27.9771 76.2154 27.9623C76.2154 27.9103 76.2178 27.8053 76.2191 27.7534C76.3971 27.7138 76.58 27.6866 76.7543 27.6223C77.0844 26.8757 77.229 26.0314 77.7358 25.3726C77.8644 25.181 78.1091 25.1575 78.3131 25.0957C78.6147 25.9573 78.1437 26.7917 77.9262 27.6087C78.072 27.7002 78.2167 27.7991 78.36 27.898C78.1586 27.9351 77.9583 27.9697 77.7581 28.0031C77.522 28.495 77.2809 28.987 76.9706 29.437C76.4576 30.1193 76.4082 31.0415 76.5083 31.8598C76.8038 31.8202 77.0757 31.6793 77.208 31.3999C77.7605 30.4382 78.1017 29.3467 78.2068 28.2441C78.4095 28.249 78.6122 28.2589 78.8187 28.2713C78.6122 29.2194 78.2562 30.1243 78.0078 31.0612C77.9509 31.3097 77.8866 31.5792 77.9843 31.8277C78.1561 31.9883 78.3897 31.8672 78.4997 31.6979C79.171 30.7263 79.2612 29.453 80.0461 28.5494C80.2736 28.2861 80.5999 28.0043 80.9757 28.0884C81.2872 28.1551 81.3898 28.5037 81.4244 28.7793C81.5468 29.8152 81.0944 30.8091 80.5468 31.6608C80.7161 31.7485 80.8892 31.9377 81.0993 31.8388C81.3663 31.641 81.5307 31.3369 81.6729 31.0427C82.04 30.196 82.2403 29.28 82.6791 28.4641C82.7767 28.1835 83.1167 28.2923 83.3454 28.254C83.0475 28.7929 82.7607 29.3455 82.6111 29.9463C83.1983 29.3134 83.7125 28.5148 84.5926 28.2639C84.2502 29.4877 83.5382 30.6447 83.6 31.9513C83.7558 31.8759 83.9548 31.8474 84.0599 31.6929C84.4851 31.1095 84.6544 30.3925 84.9622 29.7485C85.0005 30.2998 84.7026 30.7918 84.5011 31.285C84.3145 31.636 84.1315 32.0984 83.7088 32.2084C83.312 32.2937 83.0808 31.8375 83.0944 31.5025C83.0574 30.6533 83.6087 29.945 83.7372 29.1292C83.1983 29.3084 82.9288 29.8437 82.6519 30.2948C82.3095 30.8585 82.1327 31.5025 81.82 32.0786C81.6828 32.3159 81.417 32.1243 81.3119 31.9649C81.0004 32.112 80.6741 32.0489 80.3848 31.8833C80.0906 32.0019 79.7754 32.2677 79.4466 32.1181C79.1499 31.9265 79.1351 31.5297 79.0164 31.2306C78.7507 31.5742 78.5615 32.149 78.0572 32.1651C77.6073 32.1404 77.5924 31.6014 77.5108 31.2714C77.2735 31.6534 77.0077 32.2467 76.4626 32.1528C76.0374 32.0081 76.0386 31.4716 75.9249 31.1119C75.7246 31.4457 75.5615 31.8128 75.2747 32.0835C75.0818 32.2764 74.7481 32.1663 74.6603 31.9253C74.5404 31.6237 74.5713 31.2912 74.5453 30.976C74.2697 31.3938 74.0843 31.9488 73.5997 32.1688C73.1498 32.2751 73.0768 31.6917 72.9532 31.3938C72.7146 31.7065 72.486 32.0984 72.0694 32.1861C71.7851 32.2418 71.4377 32.2479 71.2226 32.0254C71.0014 31.7757 70.9519 31.4321 70.8518 31.1268C70.6046 31.51 70.4315 32.1021 69.9062 32.1589C69.3153 32.0712 69.4784 31.3109 69.4747 30.8832C69.183 31.3406 68.9914 32.0155 68.408 32.1577C67.8987 32.1985 67.8777 31.6262 67.843 31.2627C67.6008 31.6039 67.4067 32.1144 66.9357 32.1663C66.4388 32.1008 66.4796 31.4667 66.3881 31.0983C66.1693 31.4469 66.0086 31.8672 65.6501 32.0996C65.3386 32.2764 64.9604 32.0192 64.9048 31.6941C64.7416 30.9327 64.974 30.1515 65.2632 29.4506C65.4981 28.9178 65.8108 28.3529 66.3659 28.1032C66.6897 27.9499 67.047 28.0859 67.3807 28.1291C67.6576 27.3244 67.9667 26.5321 68.2102 25.7162C68.3115 25.4319 68.3721 25.1056 68.6033 24.893ZM77.2846 27.6891C77.3835 27.6928 77.58 27.699 77.6789 27.7027C77.9249 26.9981 78.2686 26.2873 78.187 25.5209C77.6678 26.1316 77.5158 26.9449 77.2846 27.6891ZM77.208 27.9536C77.0399 28.3887 76.8977 28.835 76.8235 29.2973C77.1449 28.898 77.36 28.4295 77.5516 27.9573C77.4651 27.9561 77.2933 27.9548 77.208 27.9536ZM66.6823 28.4122C66.1001 28.94 65.7379 29.6657 65.4561 30.3876C65.2682 30.8387 65.2398 31.3344 65.3102 31.814C65.7787 31.8091 65.9864 31.3554 66.1767 30.9994C66.5995 30.1453 66.9357 29.2515 67.2917 28.3677C67.0878 28.3158 66.8455 28.2243 66.6823 28.4122ZM80.3799 28.8844C79.831 29.7621 79.48 30.8153 79.5875 31.861C79.8125 31.8857 80.0783 31.9166 80.234 31.7053C80.2204 31.3134 80.1648 30.9179 80.2785 30.5334C80.3589 30.5384 80.5196 30.5483 80.6012 30.5532C80.6358 30.6335 80.7038 30.7967 80.7384 30.8771C81.0635 30.1787 81.3503 29.3912 81.1809 28.6137C80.9497 28.2144 80.5319 28.6285 80.3799 28.8844Z" fill="#C30707"/>
<path d="M128.939 25.1557C129.077 24.9121 129.378 24.969 129.614 24.948C128.867 26.398 128.097 27.8665 127.711 29.4611C128.169 29.0173 128.474 28.3523 129.127 28.1582C129.352 28.0668 129.728 28.1236 129.71 28.4364C129.793 29.2683 129.085 29.9111 128.362 30.1694C128.299 30.7034 128.238 31.3227 128.588 31.7764C128.818 32.0236 129.16 31.7912 129.31 31.5712C129.976 30.6503 129.95 29.3956 130.71 28.5229C130.974 28.199 131.458 27.8158 131.873 28.1162C132.178 28.5798 131.929 29.178 131.645 29.5897C131.352 30.0396 130.844 30.2535 130.359 30.4278C130.269 30.9544 130.215 31.518 130.496 32.0014C130.798 31.9494 131.124 31.8716 131.3 31.5922C132.072 30.5588 132.131 29.2188 132.493 28.021C132.391 28.0062 132.189 27.9765 132.087 27.9617C132.089 27.9098 132.091 27.8047 132.092 27.7515C132.269 27.7132 132.451 27.6836 132.626 27.6279C132.955 26.8788 133.1 26.0333 133.609 25.372C133.738 25.1804 133.981 25.1581 134.186 25.0951C134.488 25.9567 134.018 26.7911 133.799 27.6082C133.944 27.6996 134.09 27.7985 134.234 27.8986C134.03 27.9357 133.831 27.9691 133.631 28.0012C133.396 28.4932 133.154 28.9852 132.844 29.4364C132.331 30.1187 132.28 31.0409 132.383 31.8592C132.568 31.7999 132.801 31.7912 132.923 31.612C133.375 31.0619 133.505 30.3338 133.898 29.7467C133.745 30.429 133.5 31.099 133.131 31.6936C132.949 31.9865 132.597 32.2881 132.234 32.1176C131.868 31.8777 131.893 31.3944 131.877 31.0112C131.687 31.3573 131.511 31.7282 131.211 31.9939C130.93 32.2449 130.454 32.3129 130.161 32.0483C129.886 31.8308 129.862 31.4562 129.788 31.141C129.589 31.4797 129.407 31.8506 129.093 32.1003C128.81 32.3265 128.326 32.2993 128.123 31.9804C127.726 31.3932 127.784 30.6181 128.066 29.9964C128.412 29.8752 128.808 29.7627 129.006 29.4228C129.191 29.2003 129.114 28.9086 129.09 28.6502C128.395 28.7553 128.011 29.3968 127.661 29.9346C127.237 30.5909 127.188 31.3957 127.142 32.1534C126.96 32.1546 126.781 32.1571 126.604 32.1584C126.614 31.9185 126.63 31.6787 126.646 31.4414C126.404 31.6899 126.228 32.0582 125.884 32.1707C125.514 32.2177 125.39 31.7875 125.363 31.5007C125.295 30.5773 125.949 29.8146 126.031 28.916C125.8 28.8653 125.57 28.8134 125.343 28.759C125.059 29.8245 124.806 30.9494 124.143 31.853C123.992 32.0162 123.752 32.3289 123.515 32.146C123.172 31.9173 123.243 31.4389 123.162 31.0866C122.894 31.4587 122.705 31.9284 122.291 32.1633C121.95 32.2807 121.717 31.9062 121.686 31.6169C121.544 30.6206 121.904 29.6169 122.439 28.7874C122.735 28.3474 123.219 27.937 123.783 28.0012C124.132 28.042 124.313 28.3647 124.412 28.6663C124.146 28.5254 123.851 28.131 123.539 28.3919C122.869 28.9296 122.531 29.7652 122.225 30.544C122.106 30.9581 121.893 31.4983 122.209 31.8728C122.597 31.7677 122.788 31.3759 122.971 31.0533C123.307 30.4463 123.473 29.7615 123.8 29.1521C123.903 28.8913 124.213 29.0124 124.428 28.9815C124.09 29.9333 123.575 30.8802 123.689 31.926C123.871 31.8135 124.067 31.7022 124.166 31.502C124.95 30.1002 125.264 28.5043 125.53 26.9382C125.62 26.9406 125.8 26.9431 125.891 26.9444C126.091 27.4722 125.903 28.0049 125.625 28.4623C125.977 28.4636 126.331 28.4549 126.685 28.4438C126.577 29.6354 125.735 30.6812 125.892 31.9124C126.156 31.7925 126.357 31.5811 126.459 31.3079C127.038 29.9976 127.479 28.6317 127.997 27.2979C128.297 26.5797 128.504 25.8083 128.939 25.1557ZM133.158 27.6885C133.257 27.6922 133.453 27.6984 133.552 27.7009C133.798 26.9975 134.142 26.2867 134.06 25.5203C133.541 26.131 133.388 26.9443 133.158 27.6885ZM133.08 27.953C132.913 28.3882 132.772 28.8356 132.697 29.2967C133.017 28.8974 133.233 28.4289 133.425 27.958C133.338 27.9567 133.166 27.9543 133.08 27.953ZM131.322 28.5204C130.929 29.0075 130.662 29.5835 130.469 30.1756C131.316 29.9655 131.862 29.1101 131.798 28.2559C131.629 28.3251 131.431 28.361 131.322 28.5204Z" fill="#C30707"/>
<path d="M45.1861 26.9357C45.3183 26.7552 45.5532 26.8566 45.7386 26.8491C45.7213 27.1025 45.7881 27.4005 45.6138 27.6155C45.5001 27.7775 45.2788 27.7256 45.1119 27.7602C45.0958 27.4882 44.9772 27.1656 45.1861 26.9357Z" fill="#C30707"/>
<path d="M78.5752 26.9657C78.6778 26.7481 78.9325 26.8544 79.1191 26.8396C79.1117 27.0744 79.1797 27.3353 79.0561 27.5516C78.9609 27.7321 78.7322 27.7284 78.5666 27.7963C78.5085 27.5281 78.3639 27.2055 78.5752 26.9657Z" fill="#C30707"/>
<path d="M101.666 26.9245C101.756 26.8095 101.994 26.7131 102.09 26.8714C102.357 27.1309 102.123 27.4919 102.007 27.7651C101.868 27.7515 101.728 27.7404 101.591 27.7292C101.556 27.4622 101.444 27.1433 101.666 26.9245Z" fill="#C30707"/>
<path d="M97.2334 26.9542C97.3224 26.948 97.5004 26.9356 97.5906 26.9294C97.823 27.4597 97.619 28.0024 97.3347 28.4647C97.6858 28.4647 98.0368 28.4536 98.3891 28.4412C98.3039 29.6366 97.4583 30.6811 97.6079 31.9111C97.8564 31.7911 98.069 31.6082 98.1741 31.3461C98.6265 30.356 99.0863 29.3016 98.9664 28.1853C99.1617 28.1742 99.3583 28.1643 99.556 28.1557C99.5894 28.9246 99.4324 29.6823 99.2272 30.419C99.0876 30.9011 99.0122 31.4042 99.0838 31.9049C99.7316 31.7961 99.8873 31.0643 100.109 30.5513C100.434 29.8727 100.004 29.1063 100.325 28.4239C100.405 28.1198 100.664 27.9381 100.957 27.859C100.912 28.6551 100.653 29.4165 100.444 30.1805C100.226 30.8418 100.004 31.5464 99.4992 32.0495C99.268 32.3054 98.7142 32.3486 98.6166 31.9481C98.5251 31.5118 98.6376 31.0705 98.671 30.6341C98.399 31.1644 98.2161 31.8146 97.6883 32.1496C97.3508 32.2807 97.1184 31.9049 97.0949 31.6181C96.9565 30.7355 97.5486 29.9839 97.7179 29.1557C97.7674 28.8071 97.3199 28.8331 97.0974 28.733C96.7772 29.6947 96.598 30.7219 96.0702 31.6008C95.8427 31.9889 95.3928 32.3301 94.9218 32.1855C94.4953 32.0359 94.3247 31.5489 94.3297 31.1335C94.3272 30.2546 94.635 29.3869 95.1245 28.6637C95.373 28.3263 95.7438 27.9455 96.2024 28.0185C96.6524 28.1643 96.5609 28.7577 96.4299 29.1038C96.1963 29.796 95.5572 30.2299 94.8822 30.4277C94.792 30.9543 94.7364 31.5192 95.0207 32.0025C95.4286 31.9704 95.792 31.7466 95.9737 31.3733C96.6882 30.0037 96.9898 28.4659 97.2334 26.9542ZM95.8452 28.5203C95.4521 29.0074 95.1851 29.5834 94.9923 30.1755C95.839 29.9654 96.3841 29.11 96.3223 28.257C96.153 28.325 95.954 28.3609 95.8452 28.5203Z" fill="#C30707"/>
<path d="M107.651 27.5774C107.853 27.4452 108.056 27.6256 108.244 27.6986C107.996 27.7937 107.606 27.7641 107.55 28.0966C107.274 29.015 107.995 29.847 107.889 30.7629C107.839 31.2252 107.56 31.6121 107.367 32.0225C108.337 31.7308 108.314 30.5441 108.836 29.842C108.738 30.5503 108.465 31.2438 108.033 31.8149C107.732 32.2216 107.166 32.1499 106.721 32.1981C106.374 32.2537 106.206 31.9224 106.052 31.6814C105.749 31.9644 105.378 32.3254 104.923 32.1869C104.508 32.0806 104.409 31.6196 104.305 31.2673C104.062 31.5998 103.849 32.0114 103.439 32.1585C103.131 32.2463 102.739 32.2673 102.497 32.025C102.271 31.7716 102.225 31.4193 102.125 31.1078C101.882 31.4786 101.716 31.9706 101.279 32.1536C100.819 32.2735 100.594 31.7543 100.613 31.3798C100.644 30.3006 101.254 29.3302 101.269 28.2462C101.466 28.2486 101.665 28.2523 101.865 28.2585C101.707 29.5058 100.953 30.6381 101.027 31.9162C101.225 31.8717 101.481 31.8742 101.588 31.6641C102.211 30.6962 102.385 29.5033 103.043 28.554C103.297 28.1769 103.837 27.8827 104.264 28.1559C104.65 28.5169 104.462 29.0979 104.236 29.4947C104.158 29.5045 104.004 29.5256 103.926 29.5367C104.106 29.1349 104.259 28.7035 104.136 28.2598C103.905 28.3463 103.653 28.4291 103.518 28.6528C103.051 29.3043 102.76 30.0868 102.674 30.8828C102.66 31.2438 102.639 31.6987 102.953 31.9496C103.331 32.1115 103.714 31.8198 103.908 31.5083C104.412 30.8235 104.41 29.931 104.797 29.1943C105.038 28.7184 105.366 28.2239 105.886 28.0298C106.161 27.9248 106.502 28.1114 106.519 28.418C106.574 28.9817 106.277 29.5268 105.878 29.905C105.59 30.1807 105.172 30.2524 104.869 30.5009C104.772 30.9038 104.727 31.3538 104.881 31.7481C104.989 32.0473 105.365 31.9904 105.57 31.8285C105.974 31.559 106.011 31.0312 106.245 30.6405C106.625 29.9706 106.819 29.219 107.08 28.4996C107.211 28.1646 107.336 27.7851 107.651 27.5774ZM104.988 30.1708C105.828 29.9607 106.423 29.0855 106.266 28.2227C105.536 28.5972 105.253 29.4502 104.988 30.1708ZM106.646 31.004C106.447 31.2697 106.376 31.585 106.417 31.9125C106.548 31.9471 106.68 31.9818 106.813 32.0176C106.718 31.7543 106.627 31.491 106.552 31.2228C106.726 31.4416 106.886 31.6715 107.061 31.8903C107.591 30.9211 107.351 29.7777 107.218 28.7394C106.925 29.4576 106.477 30.2017 106.646 31.004Z" fill="#C30707"/>
</svg>
