<svg width="23" height="24" viewBox="0 0 23 24" fill="none" xmlns="http://www.w3.org/2000/svg">
<path fill-rule="evenodd" clip-rule="evenodd" d="M5.10454 12.04C5.10454 11.31 5.2258 10.61 5.44222 9.95352L1.65413 7.06079C0.915847 8.55978 0.499893 10.2488 0.499893 12.04C0.499893 13.8297 0.915335 15.5178 1.65259 17.0157L5.43864 14.1174C5.22427 13.4639 5.10454 12.7665 5.10454 12.04Z" fill="#FBBC05"/>
<path fill-rule="evenodd" clip-rule="evenodd" d="M11.7559 5.39841C13.3419 5.39841 14.7745 5.96041 15.9 6.88003L19.1745 3.61026C17.1791 1.87319 14.621 0.800293 11.7559 0.800293C7.30777 0.800293 3.48489 3.34408 1.65428 7.06089L5.44237 9.95362C6.31521 7.30408 8.80326 5.39841 11.7559 5.39841Z" fill="#EB4335"/>
<path fill-rule="evenodd" clip-rule="evenodd" d="M11.7559 18.6817C8.80326 18.6817 6.31521 16.776 5.44237 14.1265L1.65428 17.0187C3.48489 20.736 7.30777 23.2798 11.7559 23.2798C14.5013 23.2798 17.1223 22.305 19.0895 20.4785L15.4938 17.6987C14.4793 18.3378 13.2017 18.6817 11.7559 18.6817Z" fill="#34A853"/>
<path fill-rule="evenodd" clip-rule="evenodd" d="M22.4999 12.0402C22.4999 11.376 22.3976 10.6608 22.2441 9.99658H11.7557V14.3393H17.7929C17.4911 15.8198 16.6694 16.9581 15.4937 17.6989L19.0894 20.4788C21.1558 18.5608 22.4999 15.7039 22.4999 12.0402Z" fill="#4285F4"/>
</svg>
