<svg width="25" height="25" viewBox="0 0 25 25" fill="none" xmlns="http://www.w3.org/2000/svg">
<path opacity="0.4" d="M4.34131 6.63745L3.42953 7.2453C3.01594 7.52101 2.66344 7.75599 2.38795 7.97941C2.09423 8.2176 1.84545 8.47526 1.66371 8.81622C1.46316 9.19247 1.39217 9.57963 1.36344 9.99935C1.34118 10.3245 1.34248 10.7101 1.34399 11.1574L1.34407 11.1817C1.34831 12.4413 1.36002 13.728 1.39256 15.0314L1.39402 15.0899C1.43113 16.5775 1.46106 17.7776 1.63136 18.7432C1.81009 19.7566 2.15341 20.5812 2.85751 21.2854C3.56308 21.991 4.39436 22.3336 5.41643 22.5122C6.3918 22.6826 7.60687 22.7129 9.11548 22.7506L9.17369 22.752C11.1248 22.8008 13.0586 22.8008 15.0097 22.752L15.0679 22.7506C16.5765 22.7129 17.7916 22.6826 18.767 22.5122C19.789 22.3336 20.6203 21.991 21.3259 21.2854C22.03 20.5812 22.3733 19.7566 22.552 18.7432C22.7223 17.7776 22.7523 16.5775 22.7894 15.0899L22.7908 15.0314C22.8233 13.728 22.8351 12.4413 22.8393 11.1817L22.8394 11.1573C22.8409 10.7102 22.8422 10.3245 22.8199 9.99939C22.7912 9.57965 22.7202 9.19247 22.5196 8.81621C22.3379 8.47526 22.0891 8.2176 21.7954 7.97941C21.5199 7.756 21.1674 7.52103 20.7539 7.24533L19.8413 6.63696V8.43973L19.8944 8.47516C20.3428 8.77404 20.6361 8.9705 20.8506 9.14445C21.0529 9.30854 21.1409 9.41858 21.1959 9.52178C21.2179 9.56301 21.2378 9.609 21.2553 9.66577L14.7928 13.5433C14.0279 14.0022 13.5013 14.3171 13.0637 14.5229C12.6415 14.7214 12.3582 14.79 12.0917 14.79C11.8252 14.79 11.5419 14.7214 11.1197 14.5229C10.6821 14.3171 10.1555 14.0022 9.39061 13.5433L2.92804 9.66574C2.94553 9.60898 2.96543 9.563 2.98741 9.52178C3.04241 9.41858 3.13043 9.30854 3.33276 9.14445C3.54727 8.9705 3.84059 8.77404 4.28891 8.47516L4.34131 8.44022V6.63745Z" fill="#2A3046"/>
<path fill-rule="evenodd" clip-rule="evenodd" d="M9.34131 10.0393C9.34131 10.4535 9.6771 10.7893 10.0913 10.7893H14.0913C14.5055 10.7893 14.8413 10.4535 14.8413 10.0393C14.8413 9.6251 14.5055 9.28931 14.0913 9.28931H10.0913C9.6771 9.28931 9.34131 9.6251 9.34131 10.0393ZM9.34131 6.03931C9.34131 6.45352 9.6771 6.78931 10.0913 6.78931H14.0913C14.5055 6.78931 14.8413 6.45352 14.8413 6.03931C14.8413 5.6251 14.5055 5.28931 14.0913 5.28931H10.0913C9.6771 5.28931 9.34131 5.6251 9.34131 6.03931Z" fill="#2A3046"/>
<path d="M15.1453 1.28931H9.04127C8.14282 1.28928 7.39356 1.28926 6.79879 1.36923C6.17099 1.45363 5.60419 1.6393 5.14872 2.09477C4.69325 2.55024 4.50758 3.11704 4.42318 3.74483C4.34321 4.3396 4.34324 5.0888 4.34326 5.98725L4.34327 10.515L5.84327 11.415V6.03931C5.84327 5.0753 5.84486 4.42774 5.9098 3.94471C5.97184 3.48324 6.07907 3.28575 6.20938 3.15543C6.3397 3.02511 6.5372 2.91789 6.99866 2.85585C7.4817 2.79091 8.12926 2.78931 9.09327 2.78931H15.0933C16.0573 2.78931 16.7048 2.79091 17.1879 2.85585C17.6493 2.91789 17.8468 3.02511 17.9771 3.15543C18.1075 3.28575 18.2147 3.48324 18.2767 3.94471C18.3417 4.42774 18.3433 5.0753 18.3433 6.03931V11.4143L19.8433 10.5143V5.98732C19.8433 5.08885 19.8433 4.33961 19.7633 3.74483C19.6789 3.11704 19.4933 2.55024 19.0378 2.09477C18.5823 1.6393 18.0155 1.45363 17.3877 1.36923C16.793 1.28926 16.0437 1.28928 15.1453 1.28931Z" fill="#2A3046"/>
</svg>
