<svg width="25" height="25" viewBox="0 0 25 25" fill="none" xmlns="http://www.w3.org/2000/svg">
<path opacity="0.4" d="M12.232 1.78906C14.4227 1.78905 16.1434 1.78904 17.4868 1.96965C18.8634 2.15474 19.9557 2.54178 20.8139 3.39997C21.6721 4.25817 22.0591 5.35043 22.2442 6.72708C22.4248 8.0705 22.4248 9.79116 22.4248 11.9819V12.0963C22.4248 14.287 22.4248 16.0077 22.2442 17.3511C22.0591 18.7277 21.6721 19.82 20.8139 20.6782C19.9557 21.5364 18.8634 21.9234 17.4868 22.1085C16.1434 22.2891 14.4227 22.2891 12.232 22.2891H12.1176C9.9269 22.2891 8.20624 22.2891 6.86282 22.1085C5.48618 21.9234 4.39391 21.5364 3.53571 20.6782C2.67752 19.82 2.29048 18.7277 2.10539 17.3511C1.92478 16.0077 1.92479 14.287 1.9248 12.0963V11.9819C1.92479 9.79118 1.92478 8.0705 2.10539 6.72708C2.29048 5.35043 2.67752 4.25817 3.53571 3.39997C4.39391 2.54178 5.48618 2.15474 6.86282 1.96965C8.20624 1.78904 9.92692 1.78905 12.1176 1.78906H12.232Z" fill="#2A3046"/>
<path d="M12.1734 6.28906C12.7346 6.28906 13.1766 6.71294 13.4589 7.2849L14.4013 9.18535C14.4299 9.24417 14.4976 9.32699 14.5994 9.40276C14.7012 9.47844 14.8008 9.5202 14.8663 9.53121L16.5723 9.81699C17.1885 9.92054 17.705 10.2226 17.8727 10.7486C18.0403 11.2742 17.7948 11.8203 17.3517 12.2642L16.0259 13.6009C15.9734 13.6539 15.9145 13.7537 15.8776 13.8837C15.841 14.0128 15.8377 14.1303 15.8544 14.2063L15.8546 14.2074L16.2338 15.8604C16.391 16.5484 16.3389 17.2307 15.8537 17.5873C15.3668 17.9452 14.7014 17.7866 14.0969 17.4266L12.4977 16.4721C12.4306 16.432 12.3153 16.3995 12.1761 16.3995C12.0379 16.3995 11.9201 16.4315 11.8486 16.4732L11.8476 16.4737L10.2516 17.4264C9.64781 17.7876 8.98326 17.9435 8.49631 17.5852C8.01141 17.2285 7.95667 16.5475 8.11443 15.8601L8.49353 14.2074L8.49376 14.2063C8.51038 14.1303 8.50713 14.0128 8.47047 13.8837C8.43357 13.7537 8.37473 13.6539 8.3222 13.6009L6.99592 12.2637C6.55563 11.8198 6.31097 11.2741 6.47717 10.7493C6.64386 10.223 7.15936 9.92058 7.77599 9.81696L9.48055 9.53142C9.54304 9.52058 9.64174 9.4792 9.74324 9.40332C9.84493 9.32729 9.91285 9.24429 9.94148 9.18535L9.94292 9.18242L10.8841 7.2844C11.169 6.71292 11.6128 6.28906 12.1734 6.28906Z" fill="#2A3046"/>
</svg>
