<svg width="148" height="149" viewBox="0 0 148 149" fill="none" xmlns="http://www.w3.org/2000/svg">
<path d="M135.898 47.5999L93.3321 15.7478H54.6705L12.105 47.5999C6.61603 51.7074 6.61603 59.9361 12.105 64.0436L67.8489 105.757C71.4962 108.487 76.5064 108.487 80.1537 105.757L135.898 64.0436C141.387 59.9361 141.387 51.7074 135.898 47.5999Z" fill="#D8642A"/>
<path d="M125.995 23.191V99.6983C125.995 109.822 117.801 118.041 107.677 118.041H40.3423C30.2187 118.041 21.9985 109.822 21.9985 99.6983V23.191C21.9985 13.0681 30.2187 4.8479 40.3423 4.8479H107.677C117.801 4.8479 125.995 13.0681 125.995 23.191Z" fill="white"/>
<path d="M107.678 4.84839H73.5337V118.042H107.678C117.801 118.042 125.996 109.823 125.996 99.6981V23.1911C125.996 13.0686 117.801 4.84839 107.678 4.84839Z" fill="#E5E5E5"/>
<path d="M140.01 55.8306V125.783C140.01 135.924 131.805 144.152 121.641 144.152H26.3546C16.2125 144.152 7.98535 135.924 7.98535 125.783V55.8306C7.98535 58.8997 9.35627 61.9901 12.0986 64.0359L67.8383 105.759C71.4946 108.479 76.5006 108.479 80.1569 105.759L135.897 64.0359C138.639 61.9901 140.01 58.8997 140.01 55.8306Z" fill="#FABB53"/>
<path d="M135.897 64.0359L80.1572 105.759C78.198 107.217 75.8526 107.867 73.5337 107.763V144.152H121.641C131.805 144.152 140.01 135.924 140.01 125.783V55.8306C140.01 58.8997 138.639 61.9901 135.897 64.0359Z" fill="#F99944"/>
<path d="M105.556 56.9189C105.556 74.3519 91.4314 88.4778 73.9973 88.4778C73.8453 88.4778 73.6928 88.4778 73.5403 88.4565C56.3246 88.2386 42.4385 74.2 42.4385 56.9189C42.4385 39.6379 56.3246 25.5992 73.5403 25.3814C73.6928 25.3601 73.8453 25.3601 73.9973 25.3601C91.4314 25.3601 105.556 39.4859 105.556 56.9189Z" fill="#7FE110"/>
<path d="M49.9943 53.068C49.6872 53.068 49.3758 53.0245 49.0665 52.9325C47.3375 52.4208 46.3513 50.6046 46.8624 48.8756C49.2079 40.9545 54.8818 34.4729 62.4304 31.0929C64.0765 30.357 66.0075 31.094 66.744 32.7386C67.4805 34.3842 66.744 36.3157 65.0978 37.0527C59.2921 39.6527 54.9275 44.6374 53.124 50.729C52.7032 52.1488 51.4035 53.068 49.9943 53.068Z" fill="#9AFF4D"/>
<path d="M105.556 56.9189C105.556 74.3519 91.4316 88.4778 73.9975 88.4778C73.8455 88.4778 73.693 88.4778 73.5405 88.4565V25.3814C73.693 25.3601 73.8455 25.3601 73.9975 25.3601C91.4316 25.3601 105.556 39.4859 105.556 56.9189Z" fill="#71C30C"/>
<path d="M69.8463 69.0255C68.7326 69.0255 67.6189 68.6004 66.7687 67.7507L59.5634 60.5459C57.863 58.8461 57.863 56.0899 59.5634 54.3901C61.2616 52.6897 64.0183 52.6903 65.7187 54.3896L69.8463 58.5167L82.276 46.087C83.9743 44.3877 86.7331 44.3877 88.4314 46.087C90.1317 47.7873 90.1317 50.543 88.4314 52.2434L72.924 67.7507C72.0749 68.6004 70.9601 69.0255 69.8463 69.0255Z" fill="white"/>
<path d="M10.2432 116.814V113.57C10.2432 112.7 10.5917 111.873 11.1794 111.286C11.7671 110.698 12.5939 110.306 13.5079 110.306C15.3145 110.306 16.7726 111.786 16.7726 113.57V116.814C16.7726 118.62 15.3145 120.079 13.5079 120.079C11.7018 120.079 10.2432 118.62 10.2432 116.814Z" fill="#FFD77F"/>
<path d="M10.2432 102.939V80.9925C10.2432 80.1221 10.5917 79.2953 11.1794 78.7076C11.7671 78.1199 12.5939 77.7278 13.5079 77.7278C15.3145 77.7278 16.7726 79.2082 16.7726 80.9925V102.939C16.7726 104.745 15.3145 106.204 13.5079 106.204C11.7018 106.204 10.2432 104.745 10.2432 102.939Z" fill="#FFD77F"/>
</svg>
