<svg width="148" height="149" viewBox="0 0 148 149" fill="none" xmlns="http://www.w3.org/2000/svg">
<path d="M135.898 47.5999L93.3321 15.7478H54.6705L12.105 47.5999C6.61603 51.7074 6.61603 59.9361 12.105 64.0436L67.8489 105.757C71.4962 108.487 76.5064 108.487 80.1537 105.757L135.898 64.0436C141.387 59.9361 141.387 51.7074 135.898 47.5999Z" fill="#D8642A"/>
<path d="M125.995 23.191V99.6983C125.995 109.822 117.801 118.041 107.677 118.041H40.3423C30.2187 118.041 21.9985 109.822 21.9985 99.6983V23.191C21.9985 13.0681 30.2187 4.8479 40.3423 4.8479H107.677C117.801 4.8479 125.995 13.0681 125.995 23.191Z" fill="white"/>
<path d="M116.317 24.2737C116.317 25.5041 115.311 26.4945 114.095 26.4945H72.8705C72.5787 26.4951 72.2898 26.438 72.0202 26.3266C71.7505 26.2152 71.5056 26.0516 71.2994 25.8452C71.0932 25.6389 70.9297 25.3938 70.8185 25.1241C70.7073 24.8545 70.6504 24.5654 70.6511 24.2737C70.6511 23.0548 71.6401 22.0515 72.8719 22.0515H114.095C115.312 22.0515 116.317 23.0548 116.317 24.2737ZM116.317 34.426C116.317 35.6579 115.311 36.6468 114.095 36.6468H72.8705C72.5787 36.6474 72.2898 36.5903 72.0202 36.4789C71.7505 36.3675 71.5056 36.2039 71.2994 35.9975C71.0932 35.7912 70.9297 35.5461 70.8185 35.2764C70.7073 35.0067 70.6504 34.7177 70.6511 34.426C70.6511 33.2085 71.6401 32.2053 72.8719 32.2053H114.095C115.312 32.2053 116.317 33.2085 116.317 34.426ZM116.317 44.5798C116.317 45.8116 115.311 46.8005 114.095 46.8005H72.8705C72.5787 46.8011 72.2898 46.744 72.0202 46.6326C71.7505 46.5212 71.5056 46.3576 71.2994 46.1513C71.0932 45.9449 70.9297 45.6999 70.8185 45.4302C70.7073 45.1605 70.6504 44.8715 70.6511 44.5798C70.6511 43.3623 71.6401 42.359 72.8719 42.359H114.095C115.312 42.359 116.317 43.3623 116.317 44.5798Z" fill="#DADADA"/>
<path d="M109.037 58.8931C109.037 60.1235 108.034 61.1139 106.815 61.1139H36.8438C36.552 61.1147 36.2629 61.0577 35.9931 60.9464C35.7233 60.8351 35.4782 60.6715 35.2718 60.4651C35.0654 60.2588 34.9019 60.0137 34.7906 59.7439C34.6792 59.4741 34.6223 59.185 34.6231 58.8931C34.6231 57.6757 35.6149 56.6724 36.8438 56.6724H106.816C108.034 56.6724 109.037 57.6757 109.037 58.8931ZM109.037 69.0469C109.037 70.2773 108.034 71.2676 106.815 71.2676H36.8438C36.552 71.2684 36.2629 71.2115 35.9931 71.1001C35.7233 70.9888 35.4782 70.8253 35.2718 70.6189C35.0654 70.4125 34.9019 70.1674 34.7906 69.8976C34.6792 69.6278 34.6223 69.3387 34.6231 69.0469C34.6231 67.8294 35.6149 66.8261 36.8438 66.8261H106.816C108.034 66.8261 109.037 67.8294 109.037 69.0469ZM94.6629 79.2006C94.6629 80.431 93.6596 81.4214 92.4407 81.4214H51.2177C50.9259 81.4221 50.6368 81.3652 50.367 81.2539C50.0972 81.1425 49.8521 80.979 49.6457 80.7726C49.4394 80.5662 49.2758 80.3211 49.1645 80.0514C49.0531 79.7816 48.9962 79.4925 48.997 79.2006C48.997 77.9831 49.9888 76.9798 51.2177 76.9798H92.4421C93.6596 76.9798 94.6629 77.9831 94.6629 79.2006Z" fill="#DADADA"/>
<path d="M66.0011 20.649V47.3199C66.0011 48.3255 65.6016 49.29 64.8905 50.0011C64.1794 50.7122 63.2149 51.1117 62.2093 51.1117H35.5399C34.5342 51.1117 33.5698 50.7122 32.8587 50.0011C32.1475 49.29 31.748 48.3255 31.748 47.3199V20.649C31.7484 19.6436 32.1481 18.6795 32.8592 17.9687C33.5702 17.2579 34.5345 16.8586 35.5399 16.8586H62.2093C63.2147 16.8586 64.1789 17.2579 64.89 17.9687C65.6011 18.6795 66.0007 19.6436 66.0011 20.649Z" fill="#C30707"/>
<path d="M43.4406 42.018C40.9108 40.5145 39.564 37.8783 39.564 35.1099C39.564 29.7628 44.086 25.2163 49.4101 25.2163C52.4531 25.2163 55.3911 26.5617 57.0613 29.1059C57.8577 30.3219 58.2572 31.7033 58.2572 33.2513C58.2572 35.0438 57.7527 36.9684 56.3872 38.1528C55.0964 39.2697 52.995 39.1605 52.1268 38.4763C51.6927 38.137 51.4296 37.7331 51.3362 37.2688C50.8561 37.8582 50.284 38.2951 49.6185 38.5812C48.0374 39.2625 45.8425 39.2251 44.602 37.8725C43.9049 37.115 43.557 36.1319 43.557 34.9245C43.557 31.4388 46.1472 29.2813 49.0623 29.2813C50.2222 29.2813 51.2126 29.6751 52.0333 30.4657L52.1038 30.0704C52.2561 29.0786 53.7999 29.1088 53.7999 30.2098L53.0093 34.877C52.9087 35.374 52.8538 35.8792 52.8455 36.3863C52.8455 36.8204 52.9432 37.1812 53.1358 37.4672C53.8459 38.5165 57.0024 38.045 57.0024 33.2513C57.0024 31.8283 56.6387 30.6008 55.9114 29.5716C54.4108 27.4443 51.8508 26.4482 49.4101 26.4482C44.6753 26.4482 40.7714 30.4858 40.7714 35.1099C40.7714 37.312 41.825 39.5931 43.9868 40.9385C45.0332 41.5882 46.2751 41.9131 47.714 41.9131C49.1586 41.9131 50.2323 41.7693 52.5681 40.8451C52.8642 40.7459 53.0941 40.8163 53.2422 40.9601C53.5297 41.2533 53.4032 41.7262 53.0783 41.8901C51.4383 42.7094 49.6501 43.1205 47.714 43.1205C46.1041 43.1205 44.6811 42.7525 43.4406 42.018ZM51.4066 34.1569L51.7775 31.9979C51.0962 31.285 50.2222 30.9299 49.1542 30.9299C47.1419 30.9299 45.3452 32.3098 45.3452 34.6916C45.3452 38.2075 50.6247 38.712 51.4066 34.1569Z" fill="white"/>
<path d="M47.7124 43.4093C46.0594 43.4093 44.5732 43.024 43.2953 42.2651C40.6534 40.694 39.2764 37.9385 39.2764 35.1098C39.2764 29.6146 43.922 24.9287 49.41 24.9287C52.5536 24.9287 55.5836 26.3287 57.3013 28.9477C58.1263 30.2054 58.5446 31.6543 58.5446 33.2512C58.5446 35.1227 58.007 37.1279 56.5754 38.3683C55.1768 39.5815 52.9244 39.4694 51.9484 38.7032C51.6417 38.4708 51.3928 38.1708 51.2211 37.8264C50.787 38.2634 50.2868 38.6069 49.732 38.8455C48.0545 39.5657 45.7216 39.5182 44.3906 38.0679C43.6475 37.2587 43.2694 36.1993 43.2694 34.9243C43.2694 31.305 45.966 28.9937 49.0621 28.9937C50.1157 28.9937 51.0472 29.3041 51.8406 29.9179C52.1468 28.6746 54.0858 28.8269 54.0858 30.2097L53.2924 34.9258C53.186 35.4864 53.1343 35.9751 53.1343 36.3862C53.1343 36.7599 53.2148 37.0689 53.3743 37.3061C53.8846 38.065 56.7162 37.7977 56.7162 33.2526C56.7162 31.8958 56.3655 30.7128 55.677 29.7368C54.2353 27.6971 51.7731 26.7355 49.41 26.7355C44.8678 26.7355 41.0587 30.6107 41.0587 35.1098C41.0587 37.2199 42.0649 39.4047 44.1391 40.694C45.1337 41.3121 46.3368 41.6255 47.7139 41.6255C49.1326 41.6255 50.1775 41.4832 52.463 40.5776C52.9086 40.4281 53.2076 40.523 53.4433 40.7573C53.8774 41.1942 53.702 41.8986 53.209 42.1472C51.533 42.9838 49.6831 43.4093 47.7124 43.4093ZM43.5871 41.7706C44.7773 42.475 46.1658 42.8343 47.7124 42.8343C49.5954 42.8343 51.3562 42.429 52.9488 41.6341C53.1113 41.5507 53.1788 41.3064 53.038 41.1641C52.9862 41.1152 52.8798 41.0419 52.6585 41.1181C50.3486 42.0351 49.2246 42.2019 47.7139 42.2019C46.229 42.2019 44.9224 41.8569 43.8358 41.1813C41.5978 39.7899 40.4838 37.4211 40.4838 35.1098C40.4838 30.3319 44.5113 26.1606 49.41 26.1606C51.9225 26.1606 54.5817 27.1883 56.1456 29.4048C56.9045 30.4799 57.2912 31.775 57.2912 33.2512C57.2912 38.4229 53.7351 38.8614 52.8971 37.6281C52.6729 37.2946 52.5579 36.8763 52.5579 36.3862C52.5579 35.9406 52.6139 35.4145 52.726 34.8237L53.5123 30.1824C53.5051 29.4982 52.4918 29.4493 52.3868 30.1134L52.2215 31.0463C51.9384 30.845 51.0889 29.5686 49.0607 29.5686C46.3081 29.5686 43.8444 31.5882 43.8444 34.9243C43.8444 36.0513 44.1707 36.9798 44.8146 37.6784C45.9602 38.9289 48.0315 38.9519 49.5049 38.318C50.1229 38.0507 50.6663 37.6367 51.1147 37.0876L51.5 36.6147L51.6193 37.2127C51.6969 37.6108 51.9211 37.9515 52.3035 38.2505C53.0624 38.8484 55.0086 38.9648 56.1988 37.9342C57.4953 36.8116 57.9697 34.9631 57.9697 33.2512C57.9697 31.7678 57.583 30.4267 56.8197 29.2639C55.1955 26.7873 52.3365 25.5037 49.41 25.5037C44.244 25.5037 39.8513 29.9236 39.8513 35.1098C39.8513 37.7402 41.1191 40.3045 43.5871 41.7706ZM45.0576 34.6915C45.0576 32.1933 46.929 30.6423 49.1541 30.6423C51.0371 30.6423 51.9369 31.7994 52.085 31.9044L51.6897 34.2056C50.8474 39.1215 45.0576 38.5696 45.0576 34.6915ZM49.1541 31.2173C47.2453 31.2173 45.6325 32.5052 45.6325 34.6915C45.6325 37.8595 50.4018 38.3108 51.1234 34.1093L51.4683 32.0955C50.856 31.5048 50.0971 31.2187 49.1541 31.2187V31.2173Z" fill="white"/>
<path opacity="0.3" d="M44.8149 19.1792H61.8993C62.271 19.1792 62.6275 19.293 62.8903 19.4956C63.1531 19.6982 63.3008 19.9729 63.3008 20.2594C63.3008 20.5459 63.1531 20.8206 62.8903 21.0232C62.6275 21.2258 62.271 21.3396 61.8993 21.3396H44.8168C44.4451 21.3396 44.0886 21.2258 43.8258 21.0232C43.563 20.8206 43.4153 20.5459 43.4153 20.2594C43.4153 19.9729 43.563 19.6982 43.8258 19.4956C44.0886 19.293 44.4432 19.1792 44.8149 19.1792ZM37.5455 19.1792H39.9401C40.3117 19.1792 40.6682 19.293 40.931 19.4956C41.1939 19.6982 41.3415 19.9729 41.3415 20.2594C41.3415 20.5459 41.1939 20.8206 40.931 21.0232C40.6682 21.2258 40.3117 21.3396 39.9401 21.3396H37.5455C37.1738 21.3396 36.8174 21.2258 36.5545 21.0232C36.2917 20.8206 36.144 20.5459 36.144 20.2594C36.144 19.9729 36.2917 19.6982 36.5545 19.4956C36.8174 19.293 37.1738 19.1792 37.5455 19.1792Z" fill="white"/>
<path d="M10.2432 116.814V113.57C10.2432 112.7 10.5917 111.873 11.1794 111.286C11.7671 110.698 12.5939 110.306 13.5079 110.306C15.3145 110.306 16.7726 111.786 16.7726 113.57V116.814C16.7726 118.62 15.3145 120.079 13.5079 120.079C11.7018 120.079 10.2432 118.62 10.2432 116.814Z" fill="#FFD77F"/>
<path d="M10.2432 102.939V80.9925C10.2432 80.1221 10.5917 79.2953 11.1794 78.7076C11.7671 78.1199 12.5939 77.7278 13.5079 77.7278C15.3145 77.7278 16.7726 79.2082 16.7726 80.9925V102.939C16.7726 104.745 15.3145 106.204 13.5079 106.204C11.7018 106.204 10.2432 104.745 10.2432 102.939Z" fill="#FFD77F"/>
<path opacity="0.1" d="M107.678 4.84766H73.5337V118.041H107.678C117.801 118.041 125.996 109.822 125.996 99.6973V23.1904C125.996 13.0679 117.801 4.84766 107.678 4.84766Z" fill="black"/>
<path d="M140.01 55.8301V125.782C140.01 135.924 131.805 144.151 121.641 144.151H26.3546C16.2125 144.151 7.98535 135.924 7.98535 125.782V55.8301C7.98535 58.8992 9.35627 61.9897 12.0986 64.0354L67.8383 105.758C71.4946 108.479 76.5006 108.479 80.1569 105.758L135.897 64.0354C138.639 61.9897 140.01 58.8992 140.01 55.8301Z" fill="#FABB53"/>
<path d="M135.897 64.0354L80.1569 105.758C78.1978 107.216 75.8523 107.867 73.5334 107.762V144.151H121.641C131.805 144.151 140.01 135.924 140.01 125.782V55.8301C140.01 58.8992 138.639 61.9897 135.897 64.0354Z" fill="#F99944"/>
</svg>
