<svg width="41" height="40" viewBox="0 0 41 40" fill="none" xmlns="http://www.w3.org/2000/svg">
<rect x="0.591797" y="0.5" width="39" height="39" rx="19.5" fill="white"/>
<rect x="0.591797" y="0.5" width="39" height="39" rx="19.5" stroke="#C1C1C1"/>
<path d="M20.0918 12.5C20.9202 12.5 21.5918 13.1716 21.5918 14C21.5918 14.8284 20.9202 15.5 20.0918 15.5C19.2634 15.5 18.5918 14.8284 18.5918 14C18.5918 13.1716 19.2634 12.5 20.0918 12.5Z" fill="#393939" stroke="#393939"/>
<path d="M20.0918 18.5C20.9202 18.5 21.5918 19.1716 21.5918 20C21.5918 20.8284 20.9202 21.5 20.0918 21.5C19.2634 21.5 18.5918 20.8284 18.5918 20C18.5918 19.1716 19.2634 18.5 20.0918 18.5Z" fill="#393939" stroke="#393939"/>
<path d="M20.0918 24.5C20.9202 24.5 21.5918 25.1716 21.5918 26C21.5918 26.8284 20.9202 27.5 20.0918 27.5C19.2634 27.5 18.5918 26.8284 18.5918 26C18.5918 25.1716 19.2634 24.5 20.0918 24.5Z" fill="#393939" stroke="#393939"/>
</svg>
