<svg width="199" height="78" viewBox="0 0 199 78" fill="none" xmlns="http://www.w3.org/2000/svg">
<g opacity="0.7">
<g opacity="0.9">
<circle cx="157.551" cy="52.3839" r="0.985507" fill="#FFC93F"/>
<circle cx="157.551" cy="35.6304" r="1.97101" fill="#FFC93F"/>
<circle opacity="0.5" cx="145.232" cy="64.7029" r="3.44928" fill="#FFC93F"/>
<circle cx="103.84" cy="47.9493" r="0.492754" fill="#FFC93F"/>
<circle cx="92.5075" cy="62.2392" r="0.985507" fill="#FFC93F"/>
<circle opacity="0.5" cx="69.8406" cy="46.471" r="1.97101" fill="#FFC93F"/>
<circle opacity="0.2" cx="68.3624" cy="74.5579" r="3.44928" fill="#FFC93F"/>
<circle opacity="0.5" cx="183.174" cy="31.6883" r="1.97101" fill="#FFC93F"/>
<circle cx="192.044" cy="72.0941" r="0.985507" fill="#FFC93F"/>
<circle cx="194.507" cy="41.0506" r="0.492754" fill="#FFC93F"/>
<circle cx="95.4635" cy="26.7609" r="0.985507" fill="#FFC93F"/>
<circle cx="119.116" cy="73.0797" r="1.97101" fill="#FFC93F"/>
<circle cx="166.42" cy="11.9782" r="0.985507" fill="#FFC93F"/>
<circle cx="183.174" cy="63.2247" r="1.97101" fill="#FFC93F"/>
<circle opacity="0.8" cx="59.9855" cy="19.8622" r="0.985507" fill="#FFC93F"/>
</g>
<g opacity="0.9">
<circle cx="0.985507" cy="0.985507" r="0.985507" transform="matrix(-1 0 0 1 38.4346 40.3984)" fill="#FFC93F"/>
<circle cx="1.97101" cy="1.97101" r="1.97101" transform="matrix(-1 0 0 1 39.4204 22.6594)" fill="#FFC93F"/>
<circle opacity="0.5" cx="3.44928" cy="3.44928" r="3.44928" transform="matrix(-1 0 0 1 53.2173 50.2537)" fill="#FFC93F"/>
<circle cx="0.492754" cy="0.492754" r="0.492754" transform="matrix(-1 0 0 1 91.6523 36.4565)" fill="#FFC93F"/>
<circle cx="0.985507" cy="0.985507" r="0.985507" transform="matrix(-1 0 0 1 103.478 50.2537)" fill="#FFC93F"/>
<circle opacity="0.5" cx="1.97101" cy="1.97101" r="1.97101" transform="matrix(-1 0 0 1 127.13 33.5)" fill="#FFC93F"/>
<circle opacity="0.2" cx="3.44928" cy="3.44928" r="3.44928" transform="matrix(-1 0 0 1 130.087 60.1086)" fill="#FFC93F"/>
<circle opacity="0.5" cx="1.97101" cy="1.97101" r="1.97101" transform="matrix(-1 0 0 1 13.7969 18.7173)" fill="#FFC93F"/>
<circle cx="0.985507" cy="0.985507" r="0.985507" transform="matrix(-1 0 0 1 3.94189 60.1086)" fill="#FFC93F"/>
<circle cx="0.492754" cy="0.492754" r="0.492754" transform="matrix(-1 0 0 1 0.985352 29.5579)" fill="#FFC93F"/>
<circle cx="0.985507" cy="0.985507" r="0.985507" transform="matrix(-1 0 0 1 100.522 14.7754)" fill="#FFC93F"/>
<circle cx="1.97101" cy="1.97101" r="1.97101" transform="matrix(-1 0 0 1 77.855 60.1086)" fill="#FFC93F"/>
<circle cx="0.985507" cy="0.985507" r="0.985507" transform="matrix(-1 0 0 1 29.5654 -0.00732422)" fill="#FFC93F"/>
<circle cx="1.97101" cy="1.97101" r="1.97101" transform="matrix(-1 0 0 1 13.7969 50.2537)" fill="#FFC93F"/>
<circle opacity="0.8" cx="0.985507" cy="0.985507" r="0.985507" transform="matrix(-1 0 0 1 136 7.87671)" fill="#FFC93F"/>
</g>
</g>
<path d="M44.9912 35.1875V44.2188H13.8037V35.1875H44.9912ZM34.3662 23.3125V56.4375H24.5225V23.3125H34.3662ZM58.9912 33.8438H64.1162C65.4287 33.8438 66.5016 33.6146 67.335 33.1562C68.1891 32.6771 68.8245 32.0104 69.2412 31.1562C69.6579 30.2812 69.8662 29.25 69.8662 28.0625C69.8662 27.1458 69.6683 26.3021 69.2725 25.5312C68.8975 24.7604 68.3141 24.1458 67.5225 23.6875C66.7308 23.2083 65.7204 22.9688 64.4912 22.9688C63.6579 22.9688 62.8454 23.1458 62.0537 23.5C61.262 23.8333 60.6058 24.3125 60.085 24.9375C59.585 25.5625 59.335 26.3229 59.335 27.2188H48.7725C48.7725 24.6354 49.4808 22.4271 50.8975 20.5938C52.335 18.7396 54.2204 17.3229 56.5537 16.3438C58.9079 15.3438 61.4391 14.8438 64.1475 14.8438C67.3766 14.8438 70.21 15.3438 72.6475 16.3438C75.085 17.3229 76.9808 18.7812 78.335 20.7188C79.71 22.6354 80.3975 25.0104 80.3975 27.8438C80.3975 29.4062 80.0329 30.875 79.3037 32.25C78.5745 33.625 77.5537 34.8333 76.2412 35.875C74.9287 36.9167 73.387 37.7396 71.6162 38.3438C69.8662 38.9271 67.9495 39.2188 65.8662 39.2188H58.9912V33.8438ZM58.9912 41.6875V36.4375H65.8662C68.137 36.4375 70.21 36.6979 72.085 37.2188C73.96 37.7188 75.5745 38.4688 76.9287 39.4688C78.2829 40.4688 79.3245 41.7083 80.0537 43.1875C80.7829 44.6458 81.1475 46.3229 81.1475 48.2188C81.1475 50.3438 80.7204 52.2396 79.8662 53.9062C79.012 55.5729 77.8141 56.9792 76.2725 58.125C74.7308 59.2708 72.9287 60.1458 70.8662 60.75C68.8037 61.3333 66.5641 61.625 64.1475 61.625C62.2516 61.625 60.3558 61.375 58.46 60.875C56.5641 60.3542 54.835 59.5625 53.2725 58.5C51.71 57.4167 50.4495 56.0417 49.4912 54.375C48.5537 52.6875 48.085 50.6771 48.085 48.3438H58.6475C58.6475 49.3021 58.9079 50.1771 59.4287 50.9688C59.9704 51.7396 60.6891 52.3542 61.585 52.8125C62.4808 53.2708 63.4495 53.5 64.4912 53.5C65.7829 53.5 66.8766 53.2604 67.7725 52.7812C68.6891 52.2812 69.387 51.6146 69.8662 50.7812C70.3454 49.9479 70.585 49.0208 70.585 48C70.585 46.4583 70.3245 45.2292 69.8037 44.3125C69.3037 43.3958 68.5641 42.7292 67.585 42.3125C66.6266 41.8958 65.4704 41.6875 64.1162 41.6875H58.9912ZM118.116 34.0938V42.4062C118.116 45.6771 117.731 48.5208 116.96 50.9375C116.21 53.3542 115.127 55.3542 113.71 56.9375C112.314 58.5208 110.647 59.6979 108.71 60.4688C106.772 61.2396 104.637 61.625 102.304 61.625C100.429 61.625 98.6787 61.3854 97.0537 60.9062C95.4287 60.4062 93.96 59.6562 92.6475 58.6562C91.3558 57.6354 90.2412 56.3646 89.3037 54.8438C88.3662 53.3229 87.6475 51.5312 87.1475 49.4688C86.6475 47.3854 86.3975 45.0312 86.3975 42.4062V34.0938C86.3975 30.8021 86.7725 27.9583 87.5225 25.5625C88.2933 23.1458 89.387 21.1458 90.8037 19.5625C92.2204 17.9792 93.8975 16.8021 95.835 16.0312C97.7725 15.2604 99.9079 14.875 102.241 14.875C104.116 14.875 105.856 15.125 107.46 15.625C109.085 16.1042 110.554 16.8542 111.866 17.875C113.179 18.875 114.293 20.1354 115.21 21.6562C116.147 23.1771 116.866 24.9792 117.366 27.0625C117.866 29.125 118.116 31.4688 118.116 34.0938ZM107.585 43.6875V32.75C107.585 31.2917 107.502 30.0208 107.335 28.9375C107.189 27.8542 106.96 26.9375 106.647 26.1875C106.356 25.4375 105.991 24.8333 105.554 24.375C105.116 23.8958 104.616 23.5521 104.054 23.3438C103.512 23.1146 102.908 23 102.241 23C101.408 23 100.658 23.1771 99.9912 23.5312C99.3454 23.8646 98.7933 24.4062 98.335 25.1562C97.8766 25.9062 97.5225 26.9062 97.2725 28.1562C97.0433 29.4062 96.9287 30.9375 96.9287 32.75V43.6875C96.9287 45.1667 97.0016 46.4583 97.1475 47.5625C97.3141 48.6458 97.5433 49.5729 97.835 50.3438C98.1475 51.0938 98.5225 51.7083 98.96 52.1875C99.3975 52.6458 99.8975 52.9792 100.46 53.1875C101.022 53.3958 101.637 53.5 102.304 53.5C103.116 53.5 103.845 53.3333 104.491 53C105.137 52.6667 105.689 52.125 106.147 51.375C106.627 50.6042 106.981 49.5938 107.21 48.3438C107.46 47.0729 107.585 45.5208 107.585 43.6875ZM155.241 34.0938V42.4062C155.241 45.6771 154.856 48.5208 154.085 50.9375C153.335 53.3542 152.252 55.3542 150.835 56.9375C149.439 58.5208 147.772 59.6979 145.835 60.4688C143.897 61.2396 141.762 61.625 139.429 61.625C137.554 61.625 135.804 61.3854 134.179 60.9062C132.554 60.4062 131.085 59.6562 129.772 58.6562C128.481 57.6354 127.366 56.3646 126.429 54.8438C125.491 53.3229 124.772 51.5312 124.272 49.4688C123.772 47.3854 123.522 45.0312 123.522 42.4062V34.0938C123.522 30.8021 123.897 27.9583 124.647 25.5625C125.418 23.1458 126.512 21.1458 127.929 19.5625C129.345 17.9792 131.022 16.8021 132.96 16.0312C134.897 15.2604 137.033 14.875 139.366 14.875C141.241 14.875 142.981 15.125 144.585 15.625C146.21 16.1042 147.679 16.8542 148.991 17.875C150.304 18.875 151.418 20.1354 152.335 21.6562C153.272 23.1771 153.991 24.9792 154.491 27.0625C154.991 29.125 155.241 31.4688 155.241 34.0938ZM144.71 43.6875V32.75C144.71 31.2917 144.627 30.0208 144.46 28.9375C144.314 27.8542 144.085 26.9375 143.772 26.1875C143.481 25.4375 143.116 24.8333 142.679 24.375C142.241 23.8958 141.741 23.5521 141.179 23.3438C140.637 23.1146 140.033 23 139.366 23C138.533 23 137.783 23.1771 137.116 23.5312C136.47 23.8646 135.918 24.4062 135.46 25.1562C135.002 25.9062 134.647 26.9062 134.397 28.1562C134.168 29.4062 134.054 30.9375 134.054 32.75V43.6875C134.054 45.1667 134.127 46.4583 134.272 47.5625C134.439 48.6458 134.668 49.5729 134.96 50.3438C135.272 51.0938 135.647 51.7083 136.085 52.1875C136.522 52.6458 137.022 52.9792 137.585 53.1875C138.147 53.3958 138.762 53.5 139.429 53.5C140.241 53.5 140.97 53.3333 141.616 53C142.262 52.6667 142.814 52.125 143.272 51.375C143.752 50.6042 144.106 49.5938 144.335 48.3438C144.585 47.0729 144.71 45.5208 144.71 43.6875Z" fill="url(#paint0_linear_2476_270914)"/>
<path d="M174.929 52.4531H175.89C175.812 53.2188 175.601 53.8802 175.257 54.4375C174.913 54.9896 174.444 55.4141 173.851 55.7109C173.257 56.0078 172.541 56.1562 171.702 56.1562C171.056 56.1562 170.47 56.0339 169.944 55.7891C169.424 55.5443 168.976 55.1979 168.601 54.75C168.226 54.2969 167.937 53.7552 167.733 53.125C167.53 52.4948 167.429 51.7943 167.429 51.0234V49.6016C167.429 48.8307 167.53 48.1328 167.733 47.5078C167.937 46.8776 168.228 46.3359 168.608 45.8828C168.989 45.4297 169.444 45.0807 169.976 44.8359C170.507 44.5911 171.106 44.4688 171.772 44.4688C172.58 44.4688 173.278 44.6172 173.866 44.9141C174.455 45.2057 174.918 45.6276 175.257 46.1797C175.601 46.7318 175.812 47.3984 175.89 48.1797H174.929C174.856 47.5651 174.694 47.0443 174.444 46.6172C174.194 46.1901 173.848 45.8646 173.405 45.6406C172.968 45.4115 172.424 45.2969 171.772 45.2969C171.241 45.2969 170.767 45.3984 170.351 45.6016C169.934 45.8047 169.58 46.0964 169.288 46.4766C168.996 46.8516 168.772 47.3021 168.616 47.8281C168.465 48.3542 168.39 48.9401 168.39 49.5859V51.0234C168.39 51.6484 168.463 52.224 168.608 52.75C168.754 53.276 168.968 53.7318 169.249 54.1172C169.535 54.5026 169.884 54.8021 170.296 55.0156C170.707 55.2292 171.176 55.3359 171.702 55.3359C172.374 55.3359 172.934 55.2292 173.382 55.0156C173.835 54.7969 174.187 54.474 174.437 54.0469C174.687 53.6198 174.851 53.0885 174.929 52.4531ZM177.499 51.9062V51.6484C177.499 51.0339 177.588 50.4661 177.765 49.9453C177.942 49.4245 178.194 48.974 178.522 48.5938C178.856 48.2135 179.254 47.9193 179.718 47.7109C180.181 47.4974 180.697 47.3906 181.265 47.3906C181.838 47.3906 182.356 47.4974 182.819 47.7109C183.283 47.9193 183.681 48.2135 184.015 48.5938C184.348 48.974 184.603 49.4245 184.78 49.9453C184.957 50.4661 185.046 51.0339 185.046 51.6484V51.9062C185.046 52.5208 184.957 53.0885 184.78 53.6094C184.603 54.125 184.348 54.5729 184.015 54.9531C183.687 55.3333 183.291 55.6302 182.827 55.8438C182.364 56.0521 181.848 56.1562 181.28 56.1562C180.707 56.1562 180.189 56.0521 179.726 55.8438C179.262 55.6302 178.864 55.3333 178.53 54.9531C178.197 54.5729 177.942 54.125 177.765 53.6094C177.588 53.0885 177.499 52.5208 177.499 51.9062ZM178.429 51.6484V51.9062C178.429 52.3698 178.491 52.8099 178.616 53.2266C178.741 53.638 178.924 54.0052 179.163 54.3281C179.403 54.6458 179.7 54.8958 180.054 55.0781C180.408 55.2604 180.817 55.3516 181.28 55.3516C181.739 55.3516 182.142 55.2604 182.491 55.0781C182.845 54.8958 183.142 54.6458 183.382 54.3281C183.621 54.0052 183.801 53.638 183.921 53.2266C184.046 52.8099 184.108 52.3698 184.108 51.9062V51.6484C184.108 51.1901 184.046 50.7552 183.921 50.3438C183.801 49.9323 183.619 49.5651 183.374 49.2422C183.134 48.9193 182.838 48.6641 182.483 48.4766C182.129 48.2891 181.723 48.1953 181.265 48.1953C180.806 48.1953 180.4 48.2891 180.046 48.4766C179.697 48.6641 179.4 48.9193 179.155 49.2422C178.916 49.5651 178.733 49.9323 178.608 50.3438C178.489 50.7552 178.429 51.1901 178.429 51.6484ZM188.022 47.5469V56H187.093V47.5469H188.022ZM186.929 45.1016C186.929 44.9245 186.983 44.776 187.093 44.6562C187.207 44.5312 187.364 44.4688 187.562 44.4688C187.759 44.4688 187.916 44.5312 188.03 44.6562C188.15 44.776 188.21 44.9245 188.21 45.1016C188.21 45.2734 188.15 45.4219 188.03 45.5469C187.916 45.6667 187.759 45.7266 187.562 45.7266C187.364 45.7266 187.207 45.6667 187.093 45.5469C186.983 45.4219 186.929 45.2734 186.929 45.1016ZM191.507 49.3516V56H190.577V47.5469H191.468L191.507 49.3516ZM191.296 51.25L190.882 51.0156C190.913 50.5156 191.015 50.0469 191.187 49.6094C191.358 49.1719 191.59 48.7865 191.882 48.4531C192.179 48.1198 192.525 47.8594 192.921 47.6719C193.322 47.4844 193.765 47.3906 194.249 47.3906C194.671 47.3906 195.049 47.4479 195.382 47.5625C195.715 47.6771 195.999 47.8594 196.233 48.1094C196.468 48.3594 196.645 48.6797 196.765 49.0703C196.89 49.4609 196.952 49.9375 196.952 50.5V56H196.015V50.4922C196.015 49.9089 195.934 49.4531 195.772 49.125C195.611 48.7917 195.382 48.5547 195.085 48.4141C194.788 48.2734 194.437 48.2031 194.03 48.2031C193.582 48.2031 193.189 48.3021 192.851 48.5C192.517 48.6927 192.236 48.9453 192.007 49.2578C191.783 49.5651 191.611 49.8958 191.491 50.25C191.371 50.599 191.306 50.9323 191.296 51.25Z" fill="#393939"/>
<defs>
<linearGradient id="paint0_linear_2476_270914" x1="12.3975" y1="3" x2="69.5193" y2="118.83" gradientUnits="userSpaceOnUse">
<stop stop-color="#8A5B11"/>
<stop offset="0.499" stop-color="#FCE989"/>
<stop offset="1" stop-color="#C69E38"/>
</linearGradient>
</defs>
</svg>
