<svg width="25" height="25" viewBox="0 0 25 25" fill="none" xmlns="http://www.w3.org/2000/svg">
<path opacity="0.4" fill-rule="evenodd" clip-rule="evenodd" d="M9.0753 2.03906C6.26869 2.10301 4.62938 2.37017 3.50932 3.48635C2.52903 4.46324 2.20134 5.8365 2.0918 8.03906V16.0391C2.20134 18.2417 2.52903 19.6149 3.50932 20.5918C4.62938 21.708 6.26869 21.9752 9.0753 22.0391H15.1083C17.9149 21.9752 19.5542 21.708 20.6743 20.5918C21.6546 19.6149 21.9823 18.2417 22.0918 16.0391V8.03906C21.9823 5.8365 21.6546 4.46324 20.6743 3.48635C19.5542 2.37017 17.9149 2.10301 15.1083 2.03906H9.0753ZM14.9418 9.03906C18.1727 9.03906 20.7918 11.6582 20.7918 14.8891C20.7918 18.12 18.1727 20.7391 14.9418 20.7391C11.7109 20.7391 9.0918 18.12 9.0918 14.8891C9.0918 11.6582 11.7109 9.03906 14.9418 9.03906Z" fill="#2A3046"/>
<path d="M19.4918 19.4391L22.0918 22.0391M20.7918 14.8891C20.7918 11.6582 18.1727 9.03906 14.9418 9.03906C11.7109 9.03906 9.0918 11.6582 9.0918 14.8891C9.0918 18.12 11.7109 20.7391 14.9418 20.7391C18.1727 20.7391 20.7918 18.12 20.7918 14.8891Z" stroke="#2A3046" stroke-width="1.5" stroke-linecap="round" stroke-linejoin="round"/>
<path d="M2.0918 6.03906C2.2223 4.70356 2.518 3.80536 3.18805 3.13531C3.8581 2.46526 4.7563 2.16956 6.0918 2.03906M6.0918 22.0391C4.7563 21.9086 3.8581 21.6129 3.18805 20.9428C2.518 20.2728 2.2223 19.3746 2.0918 18.0391M22.0918 6.03906C21.9613 4.70356 21.6656 3.80536 20.9955 3.13531C20.3255 2.46526 19.4273 2.16956 18.0918 2.03906M2.0918 10.0391V14.0391M14.0918 2.03906H10.0918" stroke="#2A3046" stroke-width="1.5" stroke-linecap="round"/>
</svg>
