<svg width="25" height="25" viewBox="0 0 25 25" fill="none" xmlns="http://www.w3.org/2000/svg">
<g clip-path="url(#clip0_3318_56927)">
<path d="M24.0048 12.0395C24.0048 8.98967 22.7933 6.06473 20.6367 3.90816C18.4801 1.75159 15.5552 0.540044 12.5053 0.540044C9.60967 0.53737 6.81959 1.62722 4.69241 3.5919C2.56523 5.55659 1.25756 8.25146 1.03061 11.1382C0.803649 14.025 1.67411 16.8911 3.46813 19.164C5.26214 21.437 7.84762 22.9495 10.7081 23.3994V15.3629H7.79054V12.0395H10.7098V9.50635C10.7098 6.62491 12.4265 5.03141 15.0533 5.03141C16.3117 5.03141 17.6275 5.25647 17.6275 5.25647V8.08699H16.177C14.7477 8.08699 14.3042 8.97409 14.3042 9.88255V12.0395H17.4928L16.9836 15.3629H14.3025V23.3994C17.0074 22.971 19.4706 21.5916 21.2492 19.5092C23.0277 17.4268 24.0049 14.7781 24.0048 12.0395Z" fill="#1877F2"/>
<path d="M16.982 15.3629L17.4913 12.0395H14.3026V9.88257C14.3026 8.97411 14.7462 8.087 16.1754 8.087H17.626V5.25485C17.626 5.25485 16.3101 5.02979 15.0518 5.02979C12.4233 5.02979 10.7082 6.62328 10.7082 9.50472V12.0395H7.79065V15.3629H10.7099V23.3994C11.9007 23.5868 13.1135 23.5868 14.3043 23.3994V15.3629H16.982Z" fill="white"/>
</g>
<defs>
<clipPath id="clip0_3318_56927">
<rect width="24" height="24" fill="white" transform="translate(0.5 0.0400391)"/>
</clipPath>
</defs>
</svg>
