<svg width="25" height="25" viewBox="0 0 25 25" fill="none" xmlns="http://www.w3.org/2000/svg">
<path opacity="0.4" d="M19.6343 1.61114C20.3829 1.78308 21.1412 2.06426 21.6454 2.56846C22.1496 3.07266 22.4308 3.8309 22.6027 4.57952C22.7803 5.35286 22.8675 6.23813 22.9036 7.10813C22.9759 8.85065 22.8465 10.6312 22.7629 11.5413C22.7107 12.1093 22.4783 12.6337 22.1155 13.0559C19.4062 16.2082 16.5977 19.0779 13.5312 21.8236C12.128 23.0799 10.0331 23.0932 8.57193 21.9619C6.16224 20.0962 4.11764 18.0516 2.2519 15.6419C1.12059 14.1808 1.13392 12.0858 2.39023 10.6827C5.13591 7.61619 8.00562 4.80769 11.158 2.09837C11.5802 1.7355 12.1046 1.50315 12.6725 1.45096C13.5826 1.36733 15.3632 1.23793 17.1057 1.31022C17.9757 1.34632 18.861 1.43352 19.6343 1.61114Z" fill="#2A3046"/>
<path d="M17.6748 5.03906C18.5032 5.03906 19.1748 5.71064 19.1748 6.53906C19.1748 7.36749 18.5032 8.03906 17.6748 8.03906C16.8464 8.03906 16.1748 7.36749 16.1748 6.53906C16.1748 5.71064 16.8464 5.03906 17.6748 5.03906Z" fill="#2A3046"/>
<path fill-rule="evenodd" clip-rule="evenodd" d="M6.4677 13.3319C6.85822 12.9414 7.49139 12.9414 7.88191 13.3319L10.882 16.3319C11.2725 16.7224 11.2725 17.3556 10.882 17.7461C10.4914 18.1366 9.85822 18.1366 9.4677 17.7461L6.4677 14.7461C6.07717 14.3556 6.07717 13.7224 6.4677 13.3319Z" fill="#2A3046"/>
</svg>
